<svg xmlns="http://www.w3.org/2000/svg" width="250" height="197" version="1.0" viewBox="0 0 187.5 147.75"><defs><clipPath id="a"><path d="M0 .07h187v147.36H0Zm0 0"/></clipPath><clipPath id="b"><path d="M0 .07h187v147.36H0Zm0 0"/></clipPath><clipPath id="c"><path d="M6.75.07h174c1.79 0 3.508.711 4.773 1.98a6.74 6.74 0 0 1 1.977 4.77v134.25a6.746 6.746 0 0 1-6.75 6.75h-174A6.746 6.746 0 0 1 0 141.07V6.82c0-1.789.71-3.504 1.977-4.77A6.74 6.74 0 0 1 6.75.07"/></clipPath><clipPath id="d"><path d="M0 14.848h98.262v127.527H0Zm0 0"/></clipPath><clipPath id="e"><path d="M6 58.773h6.34v6.27H6Zm0 0"/></clipPath><clipPath id="f"><path d="M3.984 61.512h3.54v3.531h-3.54Zm0 0"/></clipPath><clipPath id="g"><path d="M6 75.152h6.34v6.274H6Zm0 0"/></clipPath><clipPath id="h"><path d="M3.984 77.89h3.54v3.536h-3.54Zm0 0"/></clipPath><clipPath id="i"><path d="M42.988 46.031h76.5v76.5h-76.5Zm0 0"/></clipPath></defs><g fill="#fff" clip-path="url(#a)"><path d="M0 .07h187.5v155.25H0Zm0 0"/><path d="M0 .07h187.5v147.75H0Zm0 0"/><path d="M0 .07h187.5v147.75H0Zm0 0"/></g><g clip-path="url(#b)"><g clip-path="url(#c)"><path fill="#ff9e55" d="M0 .07h187.738V147.97H0Zm0 0"/></g></g><g clip-path="url(#d)"><path fill="#fff" d="M92.758 28.855H71.77L60.703 17.86c-.176-.18-.351-.316-.527-.453-1.75-1.453-4.48-2.492-6.645-2.492H5.504C2.477 14.914 0 17.387 0 20.41v102.457c0 3.024 2.477 5.5 5.504 5.5h6.289v8.446c0 3.023 2.473 5.496 5.5 5.496h75.465c3.027 0 5.504-2.473 5.504-5.496V34.335c0-3.023-2.477-5.48-5.504-5.48m-33.723-6.363 19.77 19.621h-18.75a1.05 1.05 0 0 1-1.04-1.043V22.492ZM4.461 122.867V20.41c0-.57.473-1.039 1.043-1.039H53.53c.336 0 .707.059 1.102.156a6 6 0 0 0-.059.864v20.66c0 3.027 2.477 5.5 5.5 5.5h20.89c.317 0 .61-.02.868-.059.098.39.156.766.156 1.098v75.258a1.05 1.05 0 0 1-1.043 1.043H5.504a1.02 1.02 0 0 1-1.043-1.024m89.34 13.945a1.05 1.05 0 0 1-1.043 1.04H17.293c-.57 0-1.04-.473-1.04-1.04v-8.445h64.712c3.027 0 5.504-2.476 5.504-5.5V47.61c0-2.16-1.043-4.847-2.496-6.597a6 6 0 0 0-.493-.551l-7.21-7.148h16.488c.57 0 1.043.472 1.043 1.042Zm-24.313-73.59H16.98a1.905 1.905 0 0 1-1.906-1.902c0-1.043.864-1.906 1.906-1.906h52.508c1.063 0 1.907.863 1.907 1.906 0 1.04-.844 1.903-1.907 1.903m0 13.946H16.98a1.906 1.906 0 0 1-1.906-1.906c0-1.04.864-1.903 1.906-1.903h52.508a1.905 1.905 0 1 1 0 3.809m0 13.922H16.98a1.905 1.905 0 0 1-1.906-1.903c0-1.042.864-1.906 1.906-1.906h52.508c1.063 0 1.907.864 1.907 1.906 0 1.04-.844 1.903-1.907 1.903M39.5 105.035H16.98a1.905 1.905 0 1 1 0-3.809H39.5a1.905 1.905 0 1 1 0 3.81m0 0"/></g><g clip-path="url(#e)"><path fill="#fff" d="m12.34 59.512-5.57 5.535-.743-.738 5.57-5.536z"/></g><g clip-path="url(#f)"><path fill="#fff" d="m6.77 65.047-2.786-2.77.743-.738 2.785 2.77z"/></g><g clip-path="url(#g)"><path fill="#fff" d="m12.34 75.89-5.57 5.536-.743-.739 5.57-5.535z"/></g><g clip-path="url(#h)"><path fill="#fff" d="m6.77 81.426-2.786-2.77.743-.734 2.785 2.766z"/></g><g clip-path="url(#i)"><path fill="#fff" d="M42.988 106.68v15.851H58.84l46.765-46.77-15.851-15.847Zm74.832-43.133a4.234 4.234 0 0 0 0-5.98l-9.87-9.868a4.234 4.234 0 0 0-5.981 0l-7.735 7.735 15.852 15.847Zm0 0"/></g></svg>