<svg xmlns="http://www.w3.org/2000/svg" xmlns:xlink="http://www.w3.org/1999/xlink" width="250" zoomAndPan="magnify" viewBox="0 0 187.5 147.749995" height="197" preserveAspectRatio="xMidYMid meet" version="1.0"><defs><clipPath id="99340a3f4f"><path d="M 0 0.0703125 L 187 0.0703125 L 187 147.429688 L 0 147.429688 Z M 0 0.0703125 " clip-rule="nonzero"/></clipPath><clipPath id="17b5cf9469"><path d="M 0 0.0703125 L 187 0.0703125 L 187 147.429688 L 0 147.429688 Z M 0 0.0703125 " clip-rule="nonzero"/></clipPath><clipPath id="fe70a2083c"><path d="M 6.75 0.0703125 L 180.75 0.0703125 C 182.539062 0.0703125 184.257812 0.78125 185.523438 2.050781 C 186.789062 3.316406 187.5 5.03125 187.5 6.820312 L 187.5 141.070312 C 187.5 142.863281 186.789062 144.578125 185.523438 145.84375 C 184.257812 147.109375 182.539062 147.820312 180.75 147.820312 L 6.75 147.820312 C 4.960938 147.820312 3.242188 147.109375 1.976562 145.84375 C 0.710938 144.578125 0 142.863281 0 141.070312 L 0 6.820312 C 0 5.03125 0.710938 3.316406 1.976562 2.050781 C 3.242188 0.78125 4.960938 0.0703125 6.75 0.0703125 " clip-rule="nonzero"/></clipPath><clipPath id="718f7b22b4"><path d="M 0 14.847656 L 98.261719 14.847656 L 98.261719 142.375 L 0 142.375 Z M 0 14.847656 " clip-rule="nonzero"/></clipPath><clipPath id="f735481ec9"><path d="M 6 58.773438 L 12.339844 58.773438 L 12.339844 65.042969 L 6 65.042969 Z M 6 58.773438 " clip-rule="nonzero"/></clipPath><clipPath id="f6ad659535"><path d="M 3.984375 61.511719 L 7.523438 61.511719 L 7.523438 65.042969 L 3.984375 65.042969 Z M 3.984375 61.511719 " clip-rule="nonzero"/></clipPath><clipPath id="1dca651786"><path d="M 6 75.152344 L 12.339844 75.152344 L 12.339844 81.425781 L 6 81.425781 Z M 6 75.152344 " clip-rule="nonzero"/></clipPath><clipPath id="74dfab74ec"><path d="M 3.984375 77.890625 L 7.523438 77.890625 L 7.523438 81.425781 L 3.984375 81.425781 Z M 3.984375 77.890625 " clip-rule="nonzero"/></clipPath><clipPath id="61bdfa5ce9"><path d="M 42.988281 46.03125 L 119.488281 46.03125 L 119.488281 122.53125 L 42.988281 122.53125 Z M 42.988281 46.03125 " clip-rule="nonzero"/></clipPath></defs><g clip-path="url(#99340a3f4f)"><path fill="#ffffff" d="M 0 0.0703125 L 187.5 0.0703125 L 187.5 155.320312 L 0 155.320312 Z M 0 0.0703125 " fill-opacity="1" fill-rule="nonzero"/><path fill="#ffffff" d="M 0 0.0703125 L 187.5 0.0703125 L 187.5 147.820312 L 0 147.820312 Z M 0 0.0703125 " fill-opacity="1" fill-rule="nonzero"/><path fill="#ffffff" d="M 0 0.0703125 L 187.5 0.0703125 L 187.5 147.820312 L 0 147.820312 Z M 0 0.0703125 " fill-opacity="1" fill-rule="nonzero"/></g><g clip-path="url(#17b5cf9469)"><g clip-path="url(#fe70a2083c)"><path fill="#ff9e55" d="M 0 0.0703125 L 187.738281 0.0703125 L 187.738281 147.96875 L 0 147.96875 Z M 0 0.0703125 " fill-opacity="1" fill-rule="nonzero"/></g></g><g clip-path="url(#718f7b22b4)"><path fill="#ffffff" d="M 92.757812 28.855469 L 71.769531 28.855469 L 60.703125 17.859375 C 60.527344 17.679688 60.351562 17.542969 60.175781 17.40625 C 58.425781 15.953125 55.695312 14.914062 53.53125 14.914062 L 5.503906 14.914062 C 2.476562 14.914062 0 17.386719 0 20.410156 L 0 122.867188 C 0 125.890625 2.476562 128.367188 5.503906 128.367188 L 11.792969 128.367188 L 11.792969 136.8125 C 11.792969 139.835938 14.265625 142.308594 17.292969 142.308594 L 92.757812 142.308594 C 95.785156 142.308594 98.261719 139.835938 98.261719 136.8125 L 98.261719 34.335938 C 98.261719 31.3125 95.785156 28.855469 92.757812 28.855469 Z M 59.035156 22.492188 L 78.804688 42.113281 L 60.054688 42.113281 C 59.488281 42.113281 59.015625 41.640625 59.015625 41.070312 L 59.015625 22.492188 Z M 4.460938 122.867188 L 4.460938 20.410156 C 4.460938 19.839844 4.933594 19.371094 5.503906 19.371094 L 53.53125 19.371094 C 53.867188 19.371094 54.238281 19.429688 54.632812 19.527344 C 54.59375 19.800781 54.574219 20.097656 54.574219 20.390625 L 54.574219 41.050781 C 54.574219 44.078125 57.050781 46.550781 60.074219 46.550781 L 80.964844 46.550781 C 81.28125 46.550781 81.574219 46.53125 81.832031 46.492188 C 81.929688 46.882812 81.988281 47.257812 81.988281 47.589844 L 81.988281 122.847656 C 81.988281 123.417969 81.515625 123.890625 80.945312 123.890625 L 5.503906 123.890625 C 4.933594 123.910156 4.460938 123.4375 4.460938 122.867188 Z M 93.800781 136.8125 C 93.800781 137.378906 93.328125 137.851562 92.757812 137.851562 L 17.292969 137.851562 C 16.722656 137.851562 16.253906 137.378906 16.253906 136.8125 L 16.253906 128.367188 L 80.964844 128.367188 C 83.992188 128.367188 86.46875 125.890625 86.46875 122.867188 L 86.46875 47.609375 C 86.46875 45.449219 85.425781 42.761719 83.972656 41.011719 C 83.835938 40.835938 83.679688 40.660156 83.480469 40.460938 L 76.269531 33.3125 L 92.757812 33.3125 C 93.328125 33.3125 93.800781 33.785156 93.800781 34.355469 Z M 69.488281 63.222656 L 16.980469 63.222656 C 15.917969 63.222656 15.074219 62.359375 15.074219 61.320312 C 15.074219 60.277344 15.9375 59.414062 16.980469 59.414062 L 69.488281 59.414062 C 70.550781 59.414062 71.394531 60.277344 71.394531 61.320312 C 71.394531 62.359375 70.550781 63.222656 69.488281 63.222656 Z M 69.488281 77.167969 L 16.980469 77.167969 C 15.917969 77.167969 15.074219 76.304688 15.074219 75.261719 C 15.074219 74.222656 15.9375 73.359375 16.980469 73.359375 L 69.488281 73.359375 C 70.550781 73.359375 71.394531 74.222656 71.394531 75.261719 C 71.394531 76.304688 70.550781 77.167969 69.488281 77.167969 Z M 69.488281 91.089844 L 16.980469 91.089844 C 15.917969 91.089844 15.074219 90.226562 15.074219 89.1875 C 15.074219 88.144531 15.9375 87.28125 16.980469 87.28125 L 69.488281 87.28125 C 70.550781 87.28125 71.394531 88.144531 71.394531 89.1875 C 71.394531 90.226562 70.550781 91.089844 69.488281 91.089844 Z M 39.5 105.035156 L 16.980469 105.035156 C 15.917969 105.035156 15.074219 104.171875 15.074219 103.128906 C 15.074219 102.070312 15.9375 101.226562 16.980469 101.226562 L 39.5 101.226562 C 40.5625 101.226562 41.40625 102.089844 41.40625 103.128906 C 41.40625 104.171875 40.5625 105.035156 39.5 105.035156 Z M 39.5 105.035156 " fill-opacity="1" fill-rule="nonzero"/></g><g clip-path="url(#f735481ec9)"><path fill="#ffffff" d="M 12.339844 59.511719 L 6.769531 65.046875 L 6.027344 64.308594 L 11.597656 58.773438 L 12.339844 59.511719 " fill-opacity="1" fill-rule="nonzero"/></g><g clip-path="url(#f6ad659535)"><path fill="#ffffff" d="M 6.769531 65.046875 L 3.984375 62.277344 L 4.726562 61.539062 L 7.511719 64.308594 L 6.769531 65.046875 " fill-opacity="1" fill-rule="nonzero"/></g><g clip-path="url(#1dca651786)"><path fill="#ffffff" d="M 12.339844 75.890625 L 6.769531 81.425781 L 6.027344 80.6875 L 11.597656 75.152344 L 12.339844 75.890625 " fill-opacity="1" fill-rule="nonzero"/></g><g clip-path="url(#74dfab74ec)"><path fill="#ffffff" d="M 6.769531 81.425781 L 3.984375 78.65625 L 4.726562 77.921875 L 7.511719 80.6875 L 6.769531 81.425781 " fill-opacity="1" fill-rule="nonzero"/></g><g clip-path="url(#61bdfa5ce9)"><path fill="#ffffff" d="M 42.988281 106.679688 L 42.988281 122.53125 L 58.839844 122.53125 L 105.605469 75.761719 L 89.753906 59.914062 Z M 117.820312 63.546875 C 119.46875 61.898438 119.46875 59.214844 117.820312 57.566406 L 107.949219 47.699219 C 106.300781 46.050781 103.617188 46.050781 101.96875 47.699219 L 94.234375 55.433594 L 110.085938 71.28125 Z M 117.820312 63.546875 " fill-opacity="1" fill-rule="nonzero"/></g></svg>