<?xml version="1.0" encoding="utf-8"?>
<!-- Generator: Adobe Illustrator 22.1.0, SVG Export Plug-In . SVG Version: 6.00 Build 0)  -->
<svg version="1.1" id="Layer_1" xmlns="http://www.w3.org/2000/svg" xmlns:xlink="http://www.w3.org/1999/xlink" x="0px" y="0px"
	 viewBox="0 0 250 197" enable-background="new 0 0 250 197" xml:space="preserve">
<g>
F97A7A
	<path fill="#F97A7A" d="M0,40C0,28.7,0.1,17.3,0,6c0-3.4,2.6-6.1,6-6.1C70.6,0,135.3,0,200,0c14.7,0,29.3,0.1,44,0c3.3,0,6,2.7,6,6
		c-0.1,61.7-0.1,123.4,0,185.1c0,3.3-2.7,6-6,6C164.7,197,85.3,197,6,197.1c-3.3,0-6-2.7-6-6.1c0.1-11,0-22,0-33
		c4.9-1.6,9.4-0.5,13.8,1.9c2.2,1.2,4.5,2.2,6.9,2.9c5.4,1.4,9,4.5,11.3,9.7c2,4.7,6.2,7.1,11.2,7c5-0.1,9.2-2.5,11.1-7.2
		c2.2-5.3,5.9-8.2,11.2-9.7c2.9-0.8,5.6-2.1,8.2-3.5c4.1-2.2,8.1-2.6,12.5-1c5.2,2,10.1,1.5,14.2-2.8c4-4.1,4.3-8.7,2.4-13.8
		c-2.5-7,4.5-26.5,10.8-30.4c0.4-0.3,0.9-0.5,1.3-0.7c5.5-2.2,8.8-6,8.8-12c0-6-3.3-9.7-8.5-12c-3.6-1.6-6.4-4.6-7.6-8.4
		c-0.8-2.7-1.8-5.4-3.2-7.9c-3.2-5.5-4.1-11-1.5-17.1c1.9-4.4,0.1-8.5-3.2-11.8c-3.3-3.3-7.4-5.2-11.8-3.2
		c-6.3,2.9-11.9,1.7-17.5-1.6c-2-1.2-4.3-1.9-6.5-2.5c-4.5-1.2-8.1-4.5-9.9-8.8c-2.2-5-6.2-7.6-11.5-7.6c-5.4,0-9.5,2.7-11.6,7.9
		c-1,2.5-2.1,5.3-4.7,6.3C17.6,34.8,9.9,41,0,40z"/>
	<path fill="#F9BABA" d="M0,40c9.9,1,17.6-5.2,26.2-8.3c2.6-0.9,3.7-3.8,4.7-6.3c2.2-5.2,6.2-7.9,11.6-7.9c5.5,0,9.5,2.7,11.6,7.9
		c1.8,4.5,5.1,7.2,9.8,8.5c2.2,0.6,4.5,1.3,6.5,2.5c5.7,3.3,11.2,4.4,17.5,1.6c4.4-2,8.5-0.1,11.8,3.2c3.3,3.3,5.1,7.3,3.2,11.8
		c-2.6,6.1-1.7,11.6,1.5,17.1c1.4,2.4,2.3,5.2,3.2,7.9c1.2,3.9,3.6,6.7,7.3,8.3c5.3,2.3,8.8,6.1,8.8,12.1c0,6-3.4,9.9-8.8,12
		c-0.5,0.2-0.9,0.4-1.3,0.7c-6.3,3.9-13.3,23.4-10.8,30.4c1.9,5.2,1.5,9.7-2.4,13.8c-4.1,4.3-9,4.7-14.2,2.8
		c-4.4-1.7-8.4-1.2-12.5,1c-2.6,1.4-5.4,2.7-8.2,3.5c-5.3,1.5-9,4.4-11.2,9.7c-1.9,4.7-6.1,7.1-11.1,7.2c-5,0.1-9.2-2.3-11.2-7
		c-2.2-5.2-5.8-8.3-11.2-9.7c-2.4-0.6-4.7-1.6-6.9-2.9c-4.4-2.5-8.9-3.6-13.9-2c0-9.3,0-18.7,0-28c2,0.3,4,0.9,5.9,0.8
		c4.1-0.2,5.9,1.4,5.3,5.6c-0.4,2.9,0.5,4.9,3.9,5c3.1,0.1,6.6,0.9,7.3-3.7c13.5,6.3,27,6.3,40.5,0.2c0.2,3.7,2.2,5.3,5.9,5.1
		c3-0.1,6,0,9,0c6.5,0,6.4-0.7,7.3-7.2c1.2-9.4-3.2-19.2,4.4-28.3c4.5-5.3,0-17.8-5.5-22.6c0.5-2.6-1.2-4.6-1.9-6.9
		c0.9-1,1.8-2,2.6-3c3.1-4.2,3.9-8.7,1.7-13.5c-2.2-5.1-6.3-7.6-11.7-8C69.7,53,66.3,56,62.9,59c-13.5-6.1-27-6.1-40.4,0.2
		c-0.4-5-4.2-4.1-7.4-4.1c-3.5,0-3.9,2.4-3.8,5.1c0.1,2.4-0.8,3.9-3.2,4.8c-2.8,1-5.3,2.6-8,3.9C0,59.3,0,49.7,0,40z"/>
	<path fill="#FBFDFD" d="M22.4,137.7c-0.8,4.6-4.2,3.8-7.3,3.7c-3.3-0.1-4.2-2.2-3.9-5c0.5-4.1-1.2-5.7-5.3-5.6
		C4,130.9,2,130.3,0,130c0-5.3,0-10.7,0-16c4.7,2.5,9.6,3.3,14.8,2.4c3-0.5,5.4-1.9,5.9-5.1c0.5-3.3-1.5-5.2-4.3-6.5
		C11,102.2,5.5,99.6,0,97c0-9.3,0-18.7,0-28c2.6-1.3,5.2-2.9,8-3.9c2.5-0.9,3.4-2.4,3.2-4.8c-0.1-2.7,0.3-5.1,3.8-5.1
		c3.2,0,7-0.9,7.4,4.1c-1.4,4.3,1.4,4.9,4.6,5.6c9.8,2.1,10.5,3.7,6.2,12.9c-0.9,1.9-1.7,2.5-3.8,1.6c-3.7-1.5-7.6-2.4-11.7-2.2
		c-2.8,0.1-5.5,0.5-6.2,3.8c-0.6,3.2,1.4,4.9,4,6.1c3.8,1.6,7.7,3.1,11.5,4.8c7.3,3.3,10.8,9.2,10.9,17c0.1,8.1-2.6,15.2-10.2,18.5
		C22.4,129.7,21.4,132.9,22.4,137.7z"/>
	<path fill="#F97A7A" d="M0,97c5.5,2.6,11,5.2,16.5,7.8c2.7,1.3,4.8,3.2,4.3,6.5c-0.5,3.2-2.9,4.5-5.9,5.1
		C9.6,117.3,4.7,116.5,0,114C0,108.3,0,102.7,0,97z"/>
	<path fill="#F97A7A" d="M22.4,137.7c-1-4.9-0.1-8,5.3-10.3c7.6-3.3,10.3-10.5,10.2-18.5c-0.1-7.9-3.6-13.7-10.9-17
		c-3.8-1.7-7.7-3.2-11.5-4.8c-2.6-1.1-4.7-2.9-4-6.1c0.6-3.3,3.4-3.6,6.2-3.8c4.1-0.2,8,0.6,11.7,2.2c2.1,0.9,2.9,0.3,3.8-1.6
		c4.3-9.2,3.6-10.8-6.2-12.9c-3.2-0.7-6-1.3-4.6-5.6C35.9,52.9,49.4,53,62.9,59c-1.9,4.7-3,9.4-0.2,14.2c3.6,6.5,10.3,8.2,19.4,4.8
		c0.7,2.3,2.4,4.3,1.9,6.9c-2.5-1.7-4.8-3.6-7.8-0.7c-1.3,1.2-3.4,0.9-4.6-0.3c-2.3-2.3-4.3-0.9-6.2,0.3c-4.1,2.7-7.1,6.6-7,11.4
		c0,5.4-3,11.9,3.9,15.7c1.2,0.7,1,2,1,3.2c-0.1,7.8-0.1,15.6-0.2,23.4C49.4,144.1,35.9,144.1,22.4,137.7z"/>
	<path fill="#FCFEFE" d="M62.9,137.9c0.1-7.8,0.2-15.6,0.2-23.4c0-1.1,0.2-2.5-1-3.2c-6.9-3.8-3.9-10.3-3.9-15.7
		c0-4.8,2.9-8.8,7-11.4c1.9-1.3,3.9-2.6,6.2-0.3c1.2,1.2,3.3,1.6,4.6,0.3c3-2.9,5.3-1,7.8,0.7c5.6,4.8,10,17.2,5.5,22.6
		c-7.7,9.1-3.2,18.9-4.4,28.3c-0.8,6.5-0.8,7.2-7.3,7.2c-3,0-6-0.1-9,0C65.1,143.2,63.1,141.6,62.9,137.9z"/>
	<path fill="#FBFDFD" d="M82,78c-9.1,3.4-15.7,1.7-19.4-4.8c-2.7-4.8-1.6-9.5,0.2-14.2c3.4-3,6.9-6,11.8-5.6c5.3,0.4,9.4,2.9,11.7,8
		c2.1,4.9,1.4,9.4-1.7,13.5C83.8,76,82.9,77,82,78z"/>
</g>
</svg>
