<?xml version="1.0" encoding="utf-8"?>
<!-- Generator: Adobe Illustrator 22.1.0, SVG Export Plug-In . SVG Version: 6.00 Build 0)  -->
<svg version="1.1" id="Layer_1" xmlns="http://www.w3.org/2000/svg" xmlns:xlink="http://www.w3.org/1999/xlink" x="0px" y="0px"
	 viewBox="0 0 250 197" style="enable-background:new 0 0 250 197;" xml:space="preserve">
<style type="text/css">
	.st0{fill:#4285B7;}
	.st1{fill:#FBFAFB;}
	.st2{fill:#FCFCFC;}
	.st3{fill:#FDFDFD;}
	.st4{fill:#FEFEFE;}
</style>
<g>
	<path class="st0" d="M0,102.5L0,102.5C0,100,2,98,4.5,98c8,0,15.9-0.1,23.9-0.1c7.1-0.1,10.1-2.9,10.1-9.9
		c0.1-17.3,0.1-34.5,0-51.8c0-7.1-3-9.9-10.1-9.9c-8-0.1-15.9-0.1-23.9-0.1C2,26,0,24,0,21.5l0-17C0,2,2,0,4.5,0c79,0,158,0,237-0.1
		c4.8,0,8.6,3.8,8.6,8.6c-0.1,60-0.1,120,0,180c0,4.8-3.8,8.6-8.6,8.6C162.3,197,83.2,197,4,197.1c-3.4,0-4.4-0.6-4.1-4.1
		c0.3-3.5,0.2-6.9,0.1-10.4c0-2.5,2-4.6,4.5-4.6c8.5,0,17,0,25.4,0c5.2,0,8.4-2.7,8.4-7.9c0.2-18.5,0.2-37,0-55.5
		c0-5-3.1-7.7-7.9-7.8c-8.7-0.1-17.3,0-26,0.1C2,107,0,105,0,102.5z M67.6,105c0.3,0,0.5,0,0.8,0c0.6-0.1,1.4-0.2,2.2-0.4
		c17.1-5.8,34.3-11.5,51.4-17.3c5.4-1.8,7.3-5.6,5.5-11c-5.7-17.2-11.5-34.3-17.4-51.4c-1.7-5.1-5.6-7.1-10.6-5.4
		C82.2,25.2,64.9,31,47.6,36.9c-4.8,1.6-6.8,5.5-5.2,10.3c5.8,17.5,11.7,34.9,17.6,52.4C61.2,103,63.7,104.9,67.6,105z M82,178
		c9,0,18,0,27,0c6.1,0,9.1-2.7,9.1-8.6c0.1-16.5,0.1-32.9,0-49.4c0-7.2-5.9-13.1-13.2-13.1c-16.5,0-33,0-49.5,0
		c-5.7,0-8.6,2.8-8.6,8.6c-0.1,16.5-0.1,32.9,0,49.4c0,7.2,5.9,13.1,13.1,13.1C67.3,178,74.7,178,82,178z"/>
	<path class="st1" d="M0,26c9.5,0.1,18.9,0.1,28.4,0.2c7.1,0.1,10.1,2.9,10.1,9.9c0.1,17.3,0.1,34.5,0,51.8c0,7.1-3,9.9-10.1,9.9
		C18.9,97.9,9.5,97.9,0,98C0,74,0,50,0,26z"/>
	<path class="st2" d="M0,107c10.2-0.1,20.3-0.2,30.5-0.1c4.8,0,7.9,2.8,7.9,7.8c0.2,18.5,0.2,37,0,55.5c-0.1,5.1-3.2,7.8-8.4,7.9
		c-10,0.1-20,0-30,0C0,154.3,0,130.7,0,107z"/>
	<path class="st3" d="M68,105c-4.2,0-6.8-1.9-8-5.4c-5.9-17.4-11.9-34.9-17.6-52.4c-1.6-4.8,0.4-8.7,5.2-10.3
		C64.9,31,82.2,25.2,99.5,19.4c5.1-1.7,8.9,0.3,10.6,5.4c5.9,17.1,11.7,34.2,17.4,51.4c1.8,5.4-0.2,9.1-5.5,11
		c-17.1,5.9-34.3,11.6-51.4,17.3C69.6,104.9,68.6,104.9,68,105z"/>
	<path class="st4" d="M82,178c-8.8,0-17.7,0-26.5,0c-5.8,0-8.6-2.8-8.7-8.6c-0.1-18-0.1-36,0-54c0-5.8,2.9-8.6,8.6-8.6
		c18-0.1,36-0.1,54,0c5.7,0,8.7,2.8,8.7,8.5c0.1,18,0.1,36,0,54c0,5.9-3,8.6-9.1,8.6C100,178,91,178,82,178z"/>
</g>
</svg>
