<?xml version="1.0" encoding="utf-8"?>
<!-- Generator: Adobe Illustrator 22.1.0, SVG Export Plug-In . SVG Version: 6.00 Build 0)  -->
<svg version="1.1" id="Layer_1" xmlns="http://www.w3.org/2000/svg" xmlns:xlink="http://www.w3.org/1999/xlink" x="0px" y="0px"
	 viewBox="0 0 250 197" enable-background="new 0 0 250 197" xml:space="preserve">
<g>
	<path fill="#468CBC" d="M0,102L0,6c0-3.3,2.7-6,6-6c79.4,0,158.7,0,238.1-0.1c3.3,0,6,2.7,6,6c-0.1,61.7-0.1,123.4,0,185.2
		c0,3.3-2.7,6-6,6c-80-0.1-156.3-0.2-236.4-0.1c-0.4,0-1,0-1.7,0c-3.3,0-6-2.7-6-6v-2.5c0-1.4,0-2.2,0-5.5c34.1,0,68.2,0,102.3,0.1
		c3.9,0,5.8-0.9,5.7-5.3c-0.1-27.3-0.1-54.6,0-81.9c0-4-1.4-5.3-6.1-4.9c-9.6,0.8-19.2,0.8-28.8,0c-5.7-0.5-9.2,0.5-10.6,5.8
		c-1.2,4.4-4.3,5.8-8.7,5.8c-16.8-0.1-33.6,0-50.4-0.1C2.3,102.5,1.1,102.2,0,102z M55.4,98c0.1-0.5,0-0.3,0.1-0.8
		c-8.3-2.1-16.6-4.2-24.9-6.3c-2.9-0.7-5.8-1.4-8.7-2.2c-1.2-0.3-2.1-1.2-1.7-2.6c0.3-1,1.1-1.2,1.9-1.2c0.9,0,1.8,0.2,2.6,0.4
		C34.8,87.8,45,90.3,55,93c2.8,0.8,4.6,0.8,5.7-2.5c1.1-3,3.8-3.8,6.9-3.8c7.5,0.1,15,0,22.5,0.1c3,0,4.2-0.8,4.4-5.8
		c0.2-4.9,1.5-9.6,3.5-14.1c2.5-5.4,1.7-6.3-1.4-7c-5.7-1.3-11.3-2.9-17-4.1c-4-0.9-5.7-2.5-4.3-6.9c1.7-5.2,2.6-10.7,4.1-15.9
		c0.8-2.8,0.3-4.1-2.7-4.9c-15.8-3.9-31.6-7.9-47.4-11.9c-3.8-1-5.7-0.2-6.7,4C18.8,37.1,14.3,54,10,70.9C7.8,79.9,5.6,88.8,3.3,98
		H55.4z M101.4,56.4C95.8,47.3,90.8,39.2,85.1,30c-1.7,6.7-3.1,12.3-4.4,17.9c-0.5,2.2,0.6,3.5,2.7,4C89,53.3,94.6,54.7,101.4,56.4z
		"/>
	<path fill="#FEFEFD" d="M0,102c1.1,0.2,2.3,0.5,3.4,0.5c16.8,0,33.6-0.1,50.4,0.1c4.4,0,7.5-1.4,8.7-5.8c1.4-5.3,4.9-6.3,10.6-5.8
		c9.6,0.8,19.2,0.9,28.8,0c4.7-0.4,6.1,0.9,6.1,4.9c-0.1,27.3-0.1,54.6,0,81.9c0,4.4-1.8,5.3-5.7,5.3C68.2,183,34.1,183,0,183V102z"
		/>
	<path fill="#FCFCFA" d="M55.4,98H3.3c2.3-9.2,4.5-18.2,6.7-27.1c4.3-16.9,8.7-33.8,12.8-50.8c1-4.2,2.9-5,6.7-4
		c15.8,4.1,31.6,8.1,47.4,11.9c3.1,0.7,3.5,2.1,2.7,4.9c-1.5,5.3-2.4,10.7-4.1,15.9c-1.5,4.5,0.2,6.1,4.3,6.9
		c5.7,1.2,11.3,2.9,17,4.1c3.1,0.7,3.8,1.6,1.4,7c-2,4.4-3.3,9.2-3.5,14.1c-0.3,5-1.5,5.8-4.4,5.8c-7.5-0.1-15,0-22.5-0.1
		c-3.1,0-5.9,0.7-6.9,3.8c-1.1,3.2-2.9,3.2-5.7,2.5c-10.1-2.7-20.2-5.2-30.3-7.7c-0.9-0.2-1.8-0.4-2.6-0.4c-0.8,0-1.6,0.2-1.9,1.2
		c-0.4,1.4,0.4,2.3,1.7,2.6c2.9,0.8,5.8,1.5,8.7,2.2c8.3,2.1,16.6,4.2,24.9,6.3C55.4,97.7,55.4,97.5,55.4,98z M35.9,26.6
		c-1.9,0.3-3.9,0.7-5.8,1c-2,0.4-2.8,1.3-2.2,3.5c0.6,1.9,1,3.7,3.8,2.7c0.7-0.3,1.5-0.5,2.3-0.5c2.2-0.2,4.5-0.3,5.2,2.4
		c0.6,2.4-1,3.8-3.1,4.3c-4,0.8-2.6,3.9-2.8,6.3c-0.3,2.3,0.7,3.6,3,3.4c1.9-0.2,4.8,0.8,4.5-2.9c-0.1-1.4,0.7-2.1,1.6-2.8
		c4.4-2.8,5.8-6.8,4.1-11.6C44.7,27.7,40.6,26.7,35.9,26.6z M74.5,81.1c1.5,0,3.1,0.3,3.3-1.6c0.1-1.6-1.2-2.1-2.6-2.5
		c-15.5-3.9-30.9-7.8-46.4-11.7c-1.5-0.4-3.2-0.8-3.7,1.2c-0.4,2,1.3,2.4,2.8,2.7c9.3,2.4,18.7,4.7,28,7.1
		C62.2,77.9,68.5,79.5,74.5,81.1z M32.9,55.7c-0.5,2.9,0.3,4.6,3.8,4.4c3-0.1,4.6-0.7,4.5-4.1c-0.1-2.9-0.7-4.7-4.1-4.5
		C34.5,51.7,32,51.9,32.9,55.7z M53.3,48.9c-1.6-0.2-2.9-0.5-3.3,1c-0.5,1.7,0.6,2.5,2,2.9c3.4,0.9,6.8,1.7,10.2,2.4
		c1.2,0.3,2.4,0.2,2.7-1.4c0.3-1.5-0.7-2.2-1.8-2.5C59.7,50.4,56.3,49.6,53.3,48.9z"/>
	<path fill="#A6CCFC" d="M101.4,56.4c-6.8-1.7-12.4-3.1-18-4.5c-2.1-0.5-3.2-1.9-2.7-4c1.3-5.6,2.8-11.1,4.4-17.9
		C90.8,39.2,95.8,47.3,101.4,56.4z"/>
	<path fill="#468CBC" d="M35.9,26.6c4.7,0.1,8.8,1.1,10.5,6c1.7,4.8,0.2,8.8-4.1,11.6c-1,0.6-1.8,1.3-1.6,2.8
		c0.3,3.6-2.6,2.7-4.5,2.9c-2.3,0.2-3.3-1.1-3-3.4C33.4,44,32,40.9,36,40c2.1-0.4,3.7-1.9,3.1-4.3c-0.7-2.7-3-2.6-5.2-2.4
		c-0.8,0.1-1.5,0.3-2.3,0.5c-2.8,1-3.2-0.8-3.8-2.7c-0.7-2.2,0.2-3.1,2.2-3.5C32,27.3,34,26.9,35.9,26.6z"/>
	<path fill="#468CBC" d="M74.5,81.1c-6.1-1.6-12.3-3.2-18.6-4.8c-9.3-2.4-18.7-4.7-28-7.1c-1.5-0.4-3.2-0.8-2.8-2.7
		c0.5-2,2.2-1.6,3.7-1.2c15.5,3.9,30.9,7.8,46.4,11.7c1.4,0.3,2.7,0.9,2.6,2.5C77.7,81.4,76.1,81.1,74.5,81.1z"/>
	<path fill="#468CBC" d="M32.9,55.7c-0.9-3.8,1.5-4,4.2-4.2c3.4-0.2,4,1.6,4.1,4.5c0.1,3.5-1.5,4-4.5,4.1
		C33.2,60.2,32.4,58.6,32.9,55.7z"/>
	<path fill="#468CBC" d="M53.3,48.9c3,0.7,6.4,1.5,9.8,2.4c1.2,0.3,2.1,1,1.8,2.5c-0.3,1.6-1.5,1.6-2.7,1.4
		c-3.4-0.7-6.8-1.6-10.2-2.4c-1.4-0.4-2.5-1.2-2-2.9C50.5,48.4,51.7,48.7,53.3,48.9z"/>
</g>
</svg>
