<?xml version="1.0" encoding="utf-8"?>
<!-- Generator: Adobe Illustrator 22.1.0, SVG Export Plug-In . SVG Version: 6.00 Build 0)  -->
<svg version="1.1" id="Layer_1" xmlns="http://www.w3.org/2000/svg" xmlns:xlink="http://www.w3.org/1999/xlink" x="0px" y="0px"
	 viewBox="0 0 250 197" enable-background="new 0 0 250 197" xml:space="preserve">
<g>
	<path fill="#4285B7" d="M0,97c0-11,0-14.3,0-26c4.8-2.8,5.3-3,10.2-5.9L8.5,61L0,63L0,6c0-3.3,2.7-6,6-6h238c3.3,0,6,2.7,6,6v185
		c0,3.3-2.7,6-6,6H6c-3.3,0-6-2.7-6-6v-13c1.3-0.6,2.6,0,3.9,0.3c8.4,2.1,16.8,2.2,25.2,0.8c35.7-6,58.3-44.4,46-78.5
		c-0.8-2.2-1.4-4.8-4.9-2.7c1.8,6.4,4.6,12.7,3.7,20.2c-5.2-0.1-10.3,0.6-15.5-0.5c-0.6-5.9-1-11.5-2.3-17c-1.7-7-4.4-8.6-11.4-6.3
		c-6.3,2.1-12.8,3.3-19.5,4c-4.4,0.4-5.6-1.2-5-6c0.4-3.8,0.3-7.6,0-11.4c-0.2-2.9,0.8-6.5-3.8-7c0,6.8-0.1,13.4,0.1,20
		c0.1,3.5-1,4.9-4.6,4.4C8.1,97.8,3.8,97.4,0,97z M8.5,22.4c-0.3,1.2,0.6,1.9,1.2,2.6c11.8,12.9,23.6,25.8,35.4,38.7
		c2.1,2.3,4.9,3.5,7.9,4c17,3,34.1,5.9,51.1,8.8c1,0.2,2,0.4,2.7-1c-0.5-0.6-0.9-1.3-1.5-1.8c-12.9-11.5-25.9-23-38.8-34.5
		c-1.6-1.4-3.5-2.5-5.6-3c-15.9-4.4-31.7-8.9-47.6-13.4C11.6,22.3,10.1,21.4,8.5,22.4z M81,77.2c-9.5-1.7-18.4-3.5-27.4-4.8
		c-5.8-0.8-10.2-3.5-14-7.8c-5.8-6.7-12-13.1-18.1-19.7c-1.1,1.3-1.4,1.4-1.6,2.3c-0.7,2.9-2.1,5.7-4,7.9c-3.2,3.6-3.7,6.2-1.3,9.2
		C28.5,81.3,46.4,91,68.3,93.5c2.1,0.2,3.9,0,5-2.2C75.7,86.7,78.2,82.2,81,77.2z M92.3,111.5c2.4-4.9,5.4-9.2,4.3-12.7
		c-1.8-5.9-1.5-11.6-1.9-17.4c-0.2-2.2-1.6-2.6-3.7-1.9c-1,6.1,1.3,12.6-2.8,18.3c-0.3,0.5,0.1,1.6,0.3,2.4
		C89.7,103.6,90.9,107.1,92.3,111.5z"/>
	<path fill="#FCFCFD" d="M0,97c4,0.4,7.9,0.8,11.9,1.4c3.6,0.5,4.7-0.9,4.6-4.4c-0.2-6.6-0.1-13.2-0.1-20c3.6,0.4,3.7,2.7,3.7,5
		c0,4.8,0.2,9.7-0.1,14.5c-0.2,4,1.1,5.3,5.1,4.9c6.7-0.7,13.1-1.9,19.5-4c7-2.3,9.7-0.7,11.4,6.3c1.3,5.5,1.7,11.1,2.3,17
		c5.2,1.1,10.3,0.4,15.5,0.5c0.9-7.5-1.9-13.8-3.7-20.2c3.5-2,4.1,0.5,4.9,2.7c12.3,34.1-10.2,72.5-46,78.5
		c-8.5,1.4-16.9,1.3-25.2-0.8C2.6,178,1.3,177.4,0,178c0-3,0-6,0-9c5.1,2.7,9.5,7.1,16.4,6.6c0-10.5,0-20.8,0-31
		c0-2.6-1.6-2.7-3.6-2.8c-4.3-0.2-8.4,1.7-12.8,1.2c0-1.3,0-2.7,0-4c5.4-0.4,10.7-0.8,16.2-1.2c0.2-5.4,0.6-10.3-0.3-15.8
		c-5.4,0-10.7,0-15.9,0c0-1.3,0-2.7,0-4c4.3,0,8.6,0.1,12.9,0.1c1.5,0,3.3,0.2,3.4-2c0.1-4,0.1-8,0-11.9c0-1.4-1.1-1.9-2.4-2
		c-4.6-0.4-9.2-0.8-13.8-1.2C0,99.7,0,98.3,0,97z M20.5,175.6c11.5,0.2,26.2-14.1,28.6-28c-9-3.6-18.4-5.9-28.6-5.5
		C20.5,153.5,20.5,164.5,20.5,175.6z M20.5,122.3c-0.4,5.3-0.5,10.4-0.1,15.5c10.8,0.3,20.6,2.5,30.5,6.1c2.3-7.1,3.6-14,3.2-21.6
		C43,122.3,32,122.3,20.5,122.3z M50.9,96.4c-9.5,3.3-18.5,5.6-27.8,5.8c-1.7,0-2.9,0.9-2.8,2.7c0.2,4.2-0.6,8.6,0.5,12.8
		c11.3,0,22.3,0,33.5,0C54.3,110.3,53.4,103.5,50.9,96.4z M58.3,122.3c-0.3,7.3-1.2,14.3-3.2,21.1c-0.5,1.5,0.2,2.5,1.6,3.2
		c2.8,1.4,5.5,2.8,8.4,4.3c5.8-8.8,9-18,9.1-28.6C68.9,122.3,63.9,122.3,58.3,122.3z M41.1,170.7c8.8-3.3,15.8-8.7,21.7-16.4
		c-3.5-1.6-5.9-4-9.5-4.3C50.1,157.5,46.2,164.4,41.1,170.7z M39.6,171.3l-0.2,0.2l0.3,0L39.6,171.3z"/>
	<path fill="#4285B7" d="M0,143c4.3,0.6,8.5-1.3,12.8-1.2c2,0.1,3.7,0.2,3.6,2.8c0,10.2,0,20.5,0,31c-7,0.5-11.4-3.9-16.4-6.6
		C0,160.3,0,151.7,0,143z"/>
	<path fill="#4285B7" d="M0,122c5.3,0,10.5,0,15.9,0c0.9,5.4,0.5,10.3,0.3,15.8c-5.5,0.4-10.9,0.8-16.2,1.2C0,133.3,0,127.7,0,122z"
		/>
	<path fill="#4285B7" d="M0,101c4.6,0.4,9.2,0.8,13.8,1.2c1.3,0.1,2.4,0.6,2.4,2c0.1,4,0.2,8,0,11.9c-0.1,2.1-1.9,2-3.4,2
		c-4.3,0-8.6-0.1-12.9-0.1C0,112.3,0,106.7,0,101z"/>
	<path fill="#FCFCFD" d="M0,63c2.7-0.7,5.5-1.3,8.5-2c0.6,1.4,1.1,2.6,1.7,4.2C6.7,67.1,3.4,69.1,0,71C0,68.3,0,65.7,0,63z"/>
	<path fill="#FCFCFD" d="M8.5,22.4c1.7-1,3.2,0,4.7,0.4c15.7,4.4,31.4,8.8,47.1,13.2c2.3,0.6,4.4,1.6,6.1,3.2
		c12.9,11.5,25.9,23,38.8,34.5c0.6,0.5,1,1.2,1.5,1.8c-0.7,1.4-1.6,1.2-2.7,1c-17-2.9-34.1-5.8-51.1-8.8c-3-0.5-5.8-1.7-7.9-4
		C33.3,50.8,21.5,37.9,9.7,24.9C9.1,24.3,8.1,23.6,8.5,22.4z"/>
	<path fill="#FCFCFD" d="M81,77.2c-2.8,5-5.3,9.5-7.7,14.1c-1.1,2.2-3,2.5-5,2.2C46.4,91,28.5,81.3,14.6,64.2
		c-1.8-2.3-2-4.3-0.5-6.8c2.1-3.6,4-7.3,6.1-10.9c0.2-0.4,0.6-0.8,1.4-1.7c6.1,6.6,12.3,13,18.1,19.7c3.8,4.3,8.2,7,14,7.8
		C62.6,73.7,71.5,75.5,81,77.2z"/>
	<path fill="#FCFCFD" d="M92.3,111.5c-1.5-4.5-2.6-7.9-3.7-11.4c-0.2-0.8-0.7-1.9-0.3-2.4c4.1-5.6,1.7-12.2,2.8-18.3
		c2-0.7,3.5-0.4,3.7,1.9c0.4,5.8,0.1,11.6,1.9,17.4C97.7,102.4,94.7,106.6,92.3,111.5z"/>
	<path fill="#4285B7" d="M20.5,175.6c0-11,0-22.1,0-33.5c10.2-0.4,19.5,1.9,28.6,5.5C46.7,161.5,32,175.8,20.5,175.6z"/>
	<path fill="#4285B7" d="M20.5,122.3c11.6,0,22.5,0,33.6,0c0.4,7.5-0.8,14.4-3.2,21.6c-9.9-3.5-19.7-5.8-30.5-6.1
		C20,132.7,20,127.7,20.5,122.3z"/>
	<path fill="#4285B7" d="M50.9,96.4c2.6,7.1,3.5,13.9,3.4,21.3c-11.2,0-22.2,0-33.5,0c-1.1-4.2-0.3-8.5-0.5-12.8
		c-0.1-1.9,1.1-2.7,2.8-2.7C32.4,102,41.4,99.7,50.9,96.4z"/>
	<path fill="#4285B7" d="M58.3,122.3c5.5,0,10.6,0,16,0c-0.2,10.6-3.3,19.7-9.1,28.6c-2.9-1.5-5.7-2.9-8.4-4.3
		c-1.4-0.7-2-1.6-1.6-3.2C57.2,136.6,58,129.6,58.3,122.3z"/>
	<path fill="#4285B7" d="M41.1,170.7c5.1-6.3,9-13.2,12.2-20.8c3.6,0.3,6,2.7,9.5,4.3C56.8,162,49.9,167.4,41.1,170.7z"/>
	<polygon fill="#4285B7" points="39.6,171.3 39.7,171.6 39.5,171.5 	"/>
</g>
</svg>
