<?xml version="1.0" encoding="utf-8"?>
<!-- Generator: Adobe Illustrator 22.1.0, SVG Export Plug-In . SVG Version: 6.00 Build 0)  -->
<svg version="1.1" id="Layer_1" xmlns="http://www.w3.org/2000/svg" xmlns:xlink="http://www.w3.org/1999/xlink" x="0px" y="0px"
	 viewBox="0 0 250 197" enable-background="new 0 0 250 197" xml:space="preserve">
<g>
	<path fill="#4285B7" d="M0,107v-9c9.3-0.1,18.7-0.1,28-0.2c7.7-0.1,10.5-2.8,10.5-10.6c0.1-16.8,0.1-33.6,0-50.5
		c0-7.8-2.8-10.5-10.5-10.6C18.7,26.1,9.3,26.1,0,26V6c0-3.3,2.7-6,6-6c79.3,0,158.7,0,238,0c3.3,0,6,2.7,6,6c0,61.7,0,123.3,0,185
		c0,3.3-2.7,6-6,6c-79.3,0-158.7,0-238,0c-3.3,0-6-2.7-6-6c0-4.3,0-8.7,0-13c9.7,0,19.3,0,29,0c6.6,0,9.4-2.7,9.5-9.4
		c0.1-5.3,0-10.7,0-16c0-12.2,0.1-24.3,0-36.5c-0.1-6.7-2.8-9.3-9.5-9.3C19.3,106.8,9.7,106.9,0,107z M82.4,106.8
		c-8.8,0-17.7,0-26.5,0c-6.2,0-9,2.7-9,8.7c-0.1,18-0.1,36,0,54c0,5.7,2.9,8.5,8.7,8.5c17.8,0.1,35.6,0,53.5,0c6.1,0,9-2.7,9.1-8.7
		c0.1-18,0.1-36,0-54c0-5.7-3-8.4-8.8-8.5C100.4,106.8,91.4,106.8,82.4,106.8z M74.2,71c0,6.7-0.1,12.8,0,19
		c0.1,4.2,2.5,6.9,6.7,7.4c3.9,0.5,6.8-1.2,8.3-5c0.8-2.1,0.7-4.2,0.7-6.4c0-4.9,0-9.8,0-15c6.8,0,12.8,0.1,18.8,0
		c4.3-0.1,7.3-3.1,7.4-7.2c0.1-4.5-2.1-7.3-6.5-8c-2.1-0.3-4.3-0.2-6.5-0.3c-4.2-0.2-8.6,0.5-13.2-0.6c0-5.7,0.1-11.2,0-16.6
		c-0.1-5.7-3.2-9.1-7.8-9.2c-4.9-0.1-7.8,3.4-7.8,9.5c0,5.4,0,10.9,0,17c-6.3,0-11.9-0.1-17.5,0c-5.9,0.2-8.9,2.9-8.8,7.9
		c0,4.9,3.1,7.5,9,7.6C62.3,71,67.8,71,74.2,71z"/>
	<path fill="#FCFCFD" d="M0,26c9.3,0.1,18.7,0.1,28,0.2c7.7,0.1,10.5,2.8,10.5,10.6c0.1,16.8,0.1,33.6,0,50.5
		c0,7.8-2.8,10.5-10.5,10.6C18.7,97.9,9.3,97.9,0,98C0,74,0,50,0,26z"/>
	<path fill="#FCFCFD" d="M0,107c9.7-0.1,19.3-0.2,29-0.2c6.7,0,9.4,2.6,9.5,9.3c0.1,12.2,0,24.3,0,36.5c0,5.3,0.1,10.7,0,16
		c-0.2,6.7-2.9,9.4-9.5,9.4c-9.7,0-19.3,0-29,0C0,154.3,0,130.7,0,107z"/>
	<path fill="#FCFCFD" d="M82.4,106.8c9,0,18-0.1,27,0c5.8,0,8.7,2.8,8.8,8.5c0.1,18,0.1,36,0,54c0,6-2.9,8.7-9.1,8.7
		c-17.8,0-35.6,0-53.5,0c-5.8,0-8.7-2.8-8.7-8.5c-0.1-18-0.1-36,0-54c0-6,2.9-8.6,9-8.7C64.7,106.8,73.6,106.8,82.4,106.8z"/>
	<path fill="#FCFCFD" d="M74.2,71c-6.4,0-11.9,0-17.3,0c-5.9,0-9-2.6-9-7.6c0-4.9,2.9-7.7,8.8-7.9c5.6-0.2,11.2,0,17.5,0
		c0-6.1,0-11.5,0-17c0-6,3-9.5,7.8-9.5c4.6,0.1,7.7,3.5,7.8,9.2c0.1,5.5,0,10.9,0,16.6c4.6,1.2,8.9,0.4,13.2,0.6
		c2.2,0.1,4.3,0,6.5,0.3c4.5,0.7,6.6,3.5,6.5,8c-0.1,4.1-3.1,7-7.4,7.2c-6,0.2-11.9,0-18.8,0c0,5.2,0,10.1,0,15
		c0,2.2,0.1,4.3-0.7,6.4c-1.5,3.8-4.4,5.4-8.3,5c-4.2-0.5-6.5-3.3-6.7-7.4C74,83.8,74.2,77.7,74.2,71z"/>
</g>
</svg>
