<?xml version="1.0" encoding="utf-8"?>
<!-- Generator: Adobe Illustrator 22.1.0, SVG Export Plug-In . SVG Version: 6.00 Build 0)  -->
<svg version="1.1" id="Layer_1" xmlns="http://www.w3.org/2000/svg" xmlns:xlink="http://www.w3.org/1999/xlink" x="0px" y="0px"
	 width="250" height="197" viewBox="0 0 250 197" enable-background="new 0 0 250 197" xml:space="preserve">
<g>
	<path fill="#FF9E55" d="M0,62C0,43.3,0,24.6,0,6c0-3.3,2.7-6,6-6C85.3,0,164.7,0,244.1-0.1c3.3,0,6,2.7,6,6
		c-0.1,61.7-0.1,123.4,0,185.1c0,3.3-2.7,6-6,6c-80.3-0.1-149.2-0.1-229.5-0.1c-0.7,0-4.9,0-8.5,0c-3.3,0-6-2.7-6-6v-3.4
		c0-3.3,0-3.6,0-8.6c4.2,0.7,8.3-0.4,12.2-1.8c10.4-3.5,12.3-9.2,6-18c-4.8-6.7-8-14.2-9.9-22.2c-2.4-10.2-2.3-10.3,7.7-7.9
		c0.6,0.2,1.3,0.4,1.9,0.6c26.9,6.8,51.4,18.9,74.5,34c0.4,0.3,0.7,1.3,1.4,0.6c0.5-0.5,0.1-1.2-0.5-1.5c-2.1-5.1-4.1-10.2-5.2-15.6
		c-6.5-31.8-6.5-63.8-2.5-95.9c1.3-10.6,3.6-21.1,8.4-31.1c-2.6,0.1-4,1.5-5.5,2.4C67.8,34.9,46.2,45.7,23.6,54.3
		C15.9,57.3,8.3,60.8,0,62z M112.9,92.9c-0.2-17.1-1.4-33.3-5-49.3c-1.2-5.4-2.4-10.7-5.3-15.5c-1.8-2.9-3.5-2.8-4.8,0.5
		c-0.4,1.1-0.7,2.2-1,3.3C94.6,44,94.5,56.4,94,68.7c-0.1,1.5,0.6,2.3,1.7,3.3c9.7,8.9,11.5,28.4,2.5,37.7c-3.9,4.1-4,7.9-4,12.4
		c0,1.6,0.1,3.2,0.2,4.8c0.8,9.2,0.6,18.4,3.1,27.4c0.4,1.4,0.7,3.2,2.5,3.4c1.2,0.2,2-0.6,2.5-1.5c1.3-2.2,2.8-6,3.5-8.4
		C111.3,129.6,112.5,110.9,112.9,92.9z"/>
	<path fill="#FEFDFD" d="M92.4,163.7c-23.1-15.1-47.6-27.2-74.5-34c-0.6-0.2-1.3-0.4-1.9-0.6c-10-2.4-10.1-2.3-7.7,7.9
		c1.9,8,5.1,15.4,9.9,22.2c6.3,8.8,4.4,14.6-6,18c-3.9,1.3-8,2.4-12.2,1.8c0-39,0-78,0-117c8.3-1.2,15.9-4.7,23.6-7.7
		c22.6-8.6,44.2-19.4,64.9-31.7c1.5-0.9,2.8-2.3,5.5-2.4c-4.9,10-7.1,20.5-8.4,31.1c-4,32.1-4,64.1,2.5,95.9
		c1.1,5.4,3.1,10.5,5.2,15.6C92.9,163.1,92.6,163.4,92.4,163.7z"/>
	<path fill="#FEFAFA" d="M112.9,92.9c-0.4,17.9-1.7,36.5-6.9,54.6c-0.7,2.5-1.8,5-2.9,7.4c-0.6,1.3-1.4,3-3.1,2.7
		c-1.7-0.2-2.1-2-2.5-3.4c-2.4-8.7-2.3-17.8-3-26.7c-0.1-1.7-0.3-3.3-0.3-5c0-4.7-0.1-8.6,4-12.8c9-9.3,7.2-28.8-2.5-37.7
		c-1.1-1-1.7-1.8-1.7-3.3c0.5-12.3,0.6-24.6,2.9-36.8c0.2-1.1,0.5-2.3,1-3.3c1.3-3.3,3.1-3.4,4.8-0.5c2.9,4.8,4.1,10.2,5.3,15.5
		C111.5,59.6,112.7,75.8,112.9,92.9z"/>
	<path fill="#FEFDFD" d="M93.2,162.8c0.6,0.4,1,1.1,0.5,1.5c-0.6,0.7-0.9-0.3-1.4-0.6C92.6,163.4,92.9,163.1,93.2,162.8z"/>
</g>
</svg>
