<?xml version="1.0" encoding="utf-8"?>
<!-- Generator: Adobe Illustrator 22.1.0, SVG Export Plug-In . SVG Version: 6.00 Build 0)  -->
<svg version="1.1" id="Layer_1" xmlns="http://www.w3.org/2000/svg" xmlns:xlink="http://www.w3.org/1999/xlink" x="0px" y="0px"
	 viewBox="0 0 250 197" enable-background="new 0 0 250 197" xml:space="preserve">
<g>
	<path fill="#4285B7" d="M0,17V6c0-3.3,2.7-6,6-6c79.3,0,158.7,0,238,0c3.3,0,6,2.7,6,6c0,61.7,0,123.3,0,185c0,3.3-2.7,6-6,6
		c-79.3,0-158.7,0-238,0c-3.3,0-6-2.7-6-6c0-3.7,0-7.3,0-11c27.1,0,54.3,0,81.4,0c6.9,0,7.4-0.4,7.4-7.3c0-38,0-76,0-113.9
		c0-1.8,0.4-3.7-1.1-5.9c-6.4,0-13.2,0-20,0c-16.8,0-15.9,1.3-15.8-15.5c0-6.6,0-13.2,0-20.3H0z M85.6,46.1
		c-8.5-9.1-17.5-18.7-27.1-28.9c0,8.7-0.1,16.4,0.1,24.2c0.1,2.5,1.5,4.6,4.3,4.7C70.9,46.1,79,46.1,85.6,46.1z"/>
	<path fill="#FDFDFE" d="M0,17c17.1,0,34.2,0,52,0c0,7.1,0,13.7,0,20.3c-0.1,16.9-1.1,15.6,15.8,15.5c6.8,0,13.6,0,20,0
		c1.5,2.2,1.1,4.1,1.1,5.9c0,38,0,76,0,113.9c0,6.9-0.5,7.3-7.4,7.3c-27.1,0-54.3,0-81.4,0c0-5.7,0-11.3,0-17
		c1.8,0.5,3.5,0.9,5.3,1.4c11.7,3.3,23.3,2.9,34.7-1.5c1.8-0.7,3.9-1.3,3.9-3.9c0-3.4,0-6.9,0-10.7c-1.6,0.4-2.6,0.4-3.4,0.9
		c-13.5,7.1-26.9,6.6-40.4-0.1c0-1,0-2,0-3c4.7,1.5,9.6,2.8,14.2,4.6c4.3,1.7,8.3,1.5,12.6-0.1c9.4-3.4,18.9-6.5,28.3-9.8
		c1.2-0.4,3.1-0.2,3.4-2.6c-5.3-1.3-10.8-2.2-16-3.8c-14.2-4.6-28.2-5.4-42.4-0.3c0-8.7,0-17.3,0-26c5.5-0.1,10.9-0.2,16.4-0.1
		c3.3,0,6.3-0.8,6.4-4.6c0.2-4.1-2.9-5.1-6.4-5.1C10.9,98.1,5.5,98.1,0,98c0-4.3,0-8.7,0-13c14.5,0,29,0.1,43.5,0.2
		c3.2,0,5.8-0.9,5.8-4.6c0-3.6-2.5-4.7-5.8-4.7C29,75.9,14.5,76,0,76c0-4.3,0-8.7,0-13c8.1-0.1,16.3-0.1,24.4-0.2
		c3.4,0,6.6-0.4,6.6-4.8c0-4.4-3.2-4.8-6.6-4.9C16.3,53.1,8.1,53.1,0,53C0,41,0,29,0,17z M49.2,116.2c-1.4,0.1-3.2,0.2-5,0.4
		c-1.6,0.2-3,0.9-3,2.7c0,1.8,1.3,2.5,3,2.7c1.8,0.2,3.7-0.4,5.3,0.5c0.9,1.6,0.5,3.3,0.6,4.9c0.1,1.8,0.6,3.4,2.7,3.5
		c2.2,0.1,2.7-1.5,2.9-3.3c0.2-1.8-0.5-3.7,0.9-5.4c1.2-0.1,2.5-0.2,3.9-0.2c1.9,0,4-0.2,4.1-2.6c0.1-2.7-2.2-2.9-4.3-3
		c-1.4-0.1-3,0.3-4-0.7c-1.7-2.8,1.2-8-3.4-8C48,107.7,51.4,113.3,49.2,116.2z M52.8,162.3c5.1-6,0.6-11.5,0-17.1
		C51.7,150.8,48,156.4,52.8,162.3z"/>
	<path fill="#4285B7" d="M0,134c14.2-5.1,28.3-4.3,42.4,0.3c5.2,1.7,10.6,2.6,16,3.8c-0.2,2.4-2.2,2.2-3.4,2.6
		c-9.4,3.3-18.9,6.3-28.3,9.8c-4.3,1.6-8.3,1.8-12.6,0.1c-4.6-1.8-9.5-3.1-14.2-4.6C0,142,0,138,0,134z"/>
	<path fill="#4285B7" d="M0,149c13.4,6.7,26.9,7.2,40.4,0.1c0.8-0.4,1.8-0.5,3.4-0.9c0,3.9,0,7.3,0,10.7c0,2.6-2.1,3.2-3.9,3.9
		c-11.4,4.4-22.9,4.8-34.7,1.5c-1.7-0.5-3.5-0.9-5.3-1.4C0,158.3,0,153.7,0,149z"/>
	<path fill="#4285B7" d="M0,76c14.5,0,29-0.1,43.5-0.1c3.3,0,5.7,1.1,5.8,4.7c0,3.7-2.5,4.6-5.8,4.6C29,85.1,14.5,85,0,85
		C0,82,0,79,0,76z"/>
	<path fill="#4285B7" d="M0,53c8.1,0.1,16.3,0.1,24.4,0.2c3.4,0,6.6,0.5,6.6,4.9c0,4.4-3.2,4.8-6.6,4.8C16.3,62.9,8.1,62.9,0,63
		C0,59.7,0,56.3,0,53z"/>
	<path fill="#4285B7" d="M0,98c5.5,0.1,10.9,0.1,16.4,0.2c3.5,0,6.6,1,6.4,5.1c-0.2,3.7-3.1,4.6-6.4,4.6c-5.5,0-10.9,0.1-16.4,0.1
		C0,104.7,0,101.3,0,98z"/>
	<path fill="#DFE6F7" d="M85.6,46.1c-6.6,0-14.7,0.1-22.7-0.1c-2.8,0-4.2-2.2-4.3-4.7c-0.2-7.7-0.1-15.5-0.1-24.2
		C68.1,27.4,77.1,36.9,85.6,46.1z"/>
	<path fill="#4285B7" d="M49.2,116.2c2.3-2.9-1.1-8.5,3.9-8.4c4.6,0,1.7,5.2,3.4,8c0.9,1,2.5,0.6,4,0.7c2.1,0.1,4.4,0.3,4.3,3
		c-0.1,2.4-2.2,2.6-4.1,2.6c-1.3,0-2.6,0.1-3.9,0.2c-1.4,1.7-0.7,3.7-0.9,5.4c-0.2,1.8-0.7,3.4-2.9,3.3c-2.2-0.1-2.6-1.7-2.7-3.5
		c-0.1-1.6,0.3-3.3-0.6-4.9c-1.7-0.9-3.6-0.4-5.3-0.5c-1.7-0.2-2.9-0.9-3-2.7c0-1.8,1.3-2.6,3-2.7C46,116.3,47.8,116.3,49.2,116.2z"
		/>
	<path fill="#4285B7" d="M52.8,162.3c-4.7-5.9-1-11.5,0-17.1C53.3,150.8,57.9,156.3,52.8,162.3z"/>
</g>
</svg>
