<?xml version="1.0" encoding="utf-8"?>
<!-- Generator: Adobe Illustrator 22.1.0, SVG Export Plug-In . SVG Version: 6.00 Build 0)  -->
<svg version="1.1" id="Layer_1" xmlns="http://www.w3.org/2000/svg" xmlns:xlink="http://www.w3.org/1999/xlink" x="0px" y="0px"
	 viewBox="0 0 250 197" enable-background="new 0 0 250 197" xml:space="preserve">
<g>
	<path fill="#4285B7" d="M0,133.4c0-1.9,0-3,0-5c3.6,0,3.8-0.1,5.8-0.1c22.3,0,44.6,0,67-0.1c11.4-0.1,14.1-2.9,14.1-14.3
		c0-27.8,0-55.6,0-83.5c0-2.2-0.2-4.3-0.6-6.4c-0.7-4.1-3.3-6.4-7.4-7c-3-0.4-6-0.6-9-0.6c-21.3-0.1-42.6,0-64,0c-2,0-4-0.2-6-0.4
		L0,6c0-3.3,2.7-6,6-6c79.4,0,158.7,0,238.1-0.1c3.3,0,6,2.7,6,6c-0.1,61.7-0.1,123.4,0,185.2c0,3.3-2.7,6-6,6
		c-80-0.1-157.5-0.2-237.6-0.1c-0.1,0-0.3,0-0.5,0c-3.3,0-6-2.7-6-6v-1c0-3.9,0-4.3,0-8c30.8,0.1,61.7,0,92.5,0.2
		c4.5,0,8.6-0.8,12.6-2.6c6.9-3,7.7-5.7,3.2-11.7c-7.3-9.9-14.8-19.8-22-29.7c-2.2-3-4.7-4.3-8.4-4.4c-23.8-0.8-47.7-0.1-71.5-0.4
		C4.6,133.4,1.9,133.4,0,133.4z"/>
	<path fill="#FCFDFE" d="M0,133.4c2.3,0,4.3,0,6.4,0c23.8,0.3,47.7-0.4,71.5,0.4c3.7,0.1,6.2,1.4,8.4,4.4c7.2,10,14.7,19.8,22,29.7
		c4.4,6,3.6,8.7-3.2,11.7c-4,1.8-8.1,2.6-12.6,2.6C61.7,182,30.8,182.1,0,182c0-3.3,0-6.7,0-10c6.1,0,12.3-0.1,18.4-0.2
		c1.4,0,3.2,0.3,4.1-1.2c1.3-2.2-4.4-11.4-7.1-11.5C10.3,159,5.1,159.1,0,159C0,150.3,0,142,0,133.4z"/>

	<path fill="#62A1C0" d="M0,121c0-4,0-8,0-12c2-0.1,4-0.3,6-0.3c14.8,0,29.6-0.2,44.4,0.1c4.7,0.1,5.8-1.5,5.8-5.9
		c-0.2-20.1-0.2-40.2,0-60.4c0.1-4.9-1-6.6-6.2-6.5C33.3,36.3,16.6,36,0,36c0-4,0-8,0-12c0.6-0.2,1.3-0.5,1.9-0.5
		c24,0,47.9,0,71.9-0.1c4.8,0,6.3,2.2,6.2,6.8C79.9,48,80,65.8,80,83.6c0,10.5-0.1,21,0.1,31.5c0.1,4.5-1.6,6.4-6.1,6.2
		c-4.3-0.2-8.7,0-13,0C40.6,121.2,20.3,121.1,0,121z"/>
	<path fill="#FBFCFD" d="M0,36c16.6,0,33.3,0.3,49.9,0c5.3-0.1,6.3,1.6,6.2,6.5c-0.3,20.1-0.2,40.2,0,60.4c0,4.5-1.1,6-5.8,5.9
		c-14.8-0.3-29.6-0.1-44.4-0.1c-2,0-4,0.2-6,0.3c0-6,0-12,0-18c7.1,0.1,14.3,0.2,21.4,0.2c1.5,0,3.8,0.5,3.8-2c0-2.4-2.2-2-3.8-2
		C14.3,87.1,7.1,87,0,87c0-4,0-8,0-12c7.1,0.1,14.3,0.2,21.4,0.2c1.5,0,3.8,0.5,3.8-2c0-2.4-2.2-2-3.8-2C14.3,71.1,7.1,71,0,71
		c0-4,0-8,0-12c7.1,0.1,14.3,0.2,21.4,0.2c1.5,0,3.8,0.5,3.8-2c0-2.4-2.2-2-3.8-2C14.3,55.1,7.1,55,0,55C0,48.7,0,42.3,0,36z
		 M37.3,60.3c2.8-0.7,4-3.3,5.9-5.1c0.9-0.8,2.2-2,0.6-3.3c-1.2-0.9-2,0.2-2.9,0.9c-1.3,1-1.8,3.5-4.2,2.7c-1.4-0.5-3.1-1.9-3.2,0.6
		C33.5,58,35.5,59.3,37.3,60.3z M35.2,70.7c-1.2-0.1-1.9,0.4-1.8,1.3c0.3,1.7,1.8,2.7,3,3.8c1.1,0.9,2.2,0.3,3-0.6
		c1.5-1.5,3-3.1,4.4-4.7c0.6-0.7,1.2-1.7,0.1-2.6c-1-0.7-1.9-0.1-2.6,0.6C39.5,70.1,38.3,73.5,35.2,70.7z M37.6,92.3
		c2.7-1.1,4-3.5,5.9-5.3c0.8-0.8,1.8-1.8,0.6-2.9c-1.2-1.1-2.1,0-3,0.7c-1.3,1.1-1.9,3.5-4.1,2.9c-1.3-0.3-3.1-2.1-3.4,0.3
		C33.3,90,35.5,91.5,37.6,92.3z"/>
	<path fill="#F6F8FC" d="M0,121c20.3,0.1,40.6,0.2,60.9,0.3c4.3,0,8.7-0.2,13,0c4.5,0.2,6.2-1.8,6.1-6.2c-0.2-10.5-0.1-21-0.1-31.5
		C80,65.8,79.9,48,80,30.2c0-4.6-1.5-6.8-6.2-6.8c-24,0.1-47.9,0-71.9,0.1c-0.6,0-1.3,0.3-1.9,0.5c0-2.7,0-5.3,0-8
		c2,0.1,4,0.4,6,0.4c21.3,0,42.6,0,64,0c3,0,6,0.2,9,0.6c4.1,0.5,6.7,2.8,7.4,7c0.4,2.1,0.6,4.3,0.6,6.4c0,27.8,0,55.6,0,83.5
		c0,11.4-2.7,14.3-14.1,14.3c-22.3,0.1-44.6,0-67,0.1c-1.9,0-3.7,0-5.8,0.1C0,125.7,0,123.7,0,121z"/>
	<path fill="#4285B7" d="M0,159c5.1,0.1,10.3,0,15.4,0.2c2.7,0.1,8.4,9.3,7.1,11.5c-0.9,1.5-2.7,1.1-4.1,1.2
		C12.3,171.9,6.1,172,0,172C0,167.7,0,163.3,0,159z"/>
	<path fill="#4285B7" d="M0,55c7.1,0,14.3,0.1,21.4,0.1c1.6,0,3.8-0.4,3.8,2c0,2.5-2.2,2-3.8,2C14.3,59.2,7.1,59.1,0,59
		C0,57.7,0,56.3,0,55z"/>
	<path fill="#4285B7" d="M0,71c7.1,0,14.3,0.1,21.4,0.1c1.6,0,3.8-0.4,3.8,2c0,2.5-2.2,2-3.8,2C14.3,75.2,7.1,75.1,0,75
		C0,73.7,0,72.3,0,71z"/>
	<path fill="#4285B7" d="M0,87c7.1,0,14.3,0.1,21.4,0.1c1.6,0,3.8-0.4,3.8,2c0,2.5-2.2,2-3.8,2C14.3,91.2,7.1,91.1,0,91
		C0,89.7,0,88.3,0,87z"/>
	<path fill="#4285B7" d="M37.3,60.3c-1.8-0.9-3.9-2.3-3.8-4.2c0.1-2.5,1.8-1.1,3.2-0.6c2.4,0.9,2.9-1.6,4.2-2.7
		c0.9-0.7,1.8-1.9,2.9-0.9c1.6,1.3,0.3,2.4-0.6,3.3C41.3,56.9,40.2,59.6,37.3,60.3z"/>
	<path fill="#4285B7" d="M35.2,70.7c3.1,2.8,4.3-0.6,6.1-2.2c0.8-0.7,1.6-1.3,2.6-0.6c1.1,0.8,0.6,1.8-0.1,2.6
		c-1.4,1.6-2.9,3.1-4.4,4.7c-0.9,0.9-1.9,1.5-3,0.6c-1.2-1-2.7-2-3-3.8C33.3,71.1,34,70.6,35.2,70.7z"/>
	<path fill="#4285B7" d="M37.6,92.3c-2.1-0.8-4.2-2.3-4-4.4c0.2-2.4,2.1-0.6,3.4-0.3c2.3,0.6,2.8-1.8,4.1-2.9C42,84,42.8,83,44,84
		c1.2,1.1,0.2,2.2-0.6,2.9C41.5,88.8,40.2,91.2,37.6,92.3z"/>
</g>
</svg>
