<?xml version="1.0" encoding="utf-8"?>
<!-- Generator: Adobe Illustrator 22.1.0, SVG Export Plug-In . SVG Version: 6.00 Build 0)  -->
<svg version="1.1" id="Layer_1" xmlns="http://www.w3.org/2000/svg" xmlns:xlink="http://www.w3.org/1999/xlink" x="0px" y="0px"
	 viewBox="0 0 250 197" enable-background="new 0 0 250 197" xml:space="preserve">
<g>
	<path fill="#F97A7A" d="M0,122C0,83.3,0,44.7,0,6c0-3.3,2.7-6,6-6c79.3,0,158.7,0,238,0c3.3,0,6,2.7,6,6c0,61.7,0,123.3,0,185
		c0,3.3-2.7,6-6,6c-79.3,0-158.7,0-238,0c-3.3,0-6-2.7-6-6c0-10,0-20,0-30c12.9,5.3,26.6,7,40.1,9.6c14.5,2.8,28.9,4.6,42.9-2.5
		c11.2-5.7,21.8-12.1,31.2-20.5c1.5-1.3,2.8-2.8,4-4.4c1.3-1.8,1.8-4,0.7-6.1c-1.2-2.3-3.5-2.4-5.7-2.1c-1.5,0.2-3,0.7-4.4,1.3
		c-10.2,4.7-21,8.1-31.8,11.2c-11.8,3.4-22.7,1.3-33.1-4.6c-1.4-0.8-3.5-1.3-3.6-3.9c4.8-1,8.8,1.1,12.9,2.5
		c8.2,2.8,16,2.9,22.9-3.3c1.4-1.3,2.4-2.9,1.8-4.9c-0.7-2.2-2.4-3.2-4.5-3.3c-10.7-0.3-20.6-4-30.3-7.7c-10-3.8-20-4.7-30.3-2.6
		C8.5,120.6,4.3,121.3,0,122z M46.7,38.5c-0.1-1.4-0.3-2.4-0.1-3.4c0.6-4.2-1.6-5.1-5.2-5c-3.4,0.1-6.6,0-5.8,4.9
		c0.5,3.4-1.3,4.5-4.2,5.4c-7.5,2.5-11.7,7.8-12.4,15.8c-0.7,8.5,2.3,15,10.2,18.7c3.3,1.6,6.7,3,10,4.5c3.3,1.5,6.6,3.3,5.6,7.7
		c-0.9,4.3-4.6,4.7-8.2,5c-5.6,0.5-10.7-1.6-16-3.1c-1.7,4.6-3.1,9-3.3,13.6c5.6,3.2,11.8,3.6,17.7,4.5c1.3,3.2-0.3,6.6,1.3,9.4
		c9.6,1.6,9.9,1.5,10.3-7.8c0.1-2.3,0.8-3.5,3-4.4c8.9-3.7,12.7-10.6,12.7-20.1c0-9.4-5-15.1-13.4-18.4c-3.5-1.4-7.2-2.7-10.5-4.5
		c-3.1-1.7-4.1-4.5-1.6-7.5c1.7-2,4.5-1.9,7-1.7c4.3,0.3,8.4,1.7,12.6,3.1c1.9-4.4,3.3-8.3,3.6-12.7C55.8,40.3,51.2,40.2,46.7,38.5z
		 M75.1,50c20.5-3.3,34.6,5.5,35.9,21.9c0.6,7.7-1.5,14.6-6.8,20.2c-8.3,8.9-18.6,9.9-29.9,6.5c-0.5,2.6-2,4.4-1.5,6.7
		c25.9,6.5,59.8-8.8,76.7-31.3C129,52,104.8,39.1,73,43.3L75.1,50z M91,60.5c-2.9-1.1-5.2-1.6-7.5-1.2c-4,0.6-6.6,1.6-5.8,6.9
		c0.9,5.8,0.9,12-0.3,17.9c-0.7,3.2,0.6,4.5,3.5,5.2c5.8,1.6,11,0.3,15.2-3.8c4.5-4.4,5.5-9.9,3.5-16.4c-3.5,3.5-7.1,5.6-10.8,1.4
		C85.3,66.7,87.5,63.5,91,60.5z"/>
	<path fill="#FCFDFD" d="M0,122c4.3-0.7,8.5-1.4,12.8-2.3c10.4-2,20.4-1.2,30.3,2.6c9.7,3.7,19.6,7.5,30.3,7.7
		c2.1,0,3.9,1.1,4.5,3.3c0.6,2-0.3,3.6-1.8,4.9c-6.9,6.2-14.7,6.1-22.9,3.3c-4.2-1.4-8.2-3.6-12.9-2.5c0.1,2.5,2.1,3.1,3.6,3.9
		c10.4,5.8,21.3,8,33.1,4.6c10.9-3.2,21.6-6.5,31.9-11.3c1.3-0.6,2.8-1.1,4.3-1.2c2.2-0.3,4.5-0.2,5.7,2.1c1.1,2.1,0.6,4.3-0.7,6.1
		c-1.2,1.6-2.5,3.1-4,4.4c-9.4,8.4-20,14.7-31.2,20.5c-14,7.2-28.4,5.3-42.9,2.5C26.6,168,12.9,166.3,0,161C0,148,0,135,0,122z"/>
	<path fill="#FCFDFD" d="M46.7,38.5c4.5,1.6,9.1,1.7,13.2,4.1c-0.2,4.4-1.7,8.4-3.6,12.7c-4.3-1.5-8.3-2.8-12.6-3.1
		c-2.5-0.1-5.3-0.3-7,1.7c-2.5,2.9-1.5,5.8,1.6,7.5c3.3,1.8,7,3.1,10.5,4.5c8.4,3.3,13.4,9,13.4,18.4c0,9.4-3.8,16.4-12.7,20.1
		c-2.2,0.9-2.9,2.1-3,4.4c-0.4,9.2-0.7,9.4-10.3,7.8c-1.7-2.8,0-6.2-1.3-9.4c-5.9-1-12.1-1.3-17.7-4.5c0.2-4.6,1.6-9,3.3-13.6
		c5.3,1.5,10.4,3.6,16,3.1c3.6-0.3,7.3-0.6,8.2-5c1-4.4-2.3-6.2-5.6-7.7c-3.3-1.5-6.7-3-10-4.5c-7.9-3.8-10.9-10.2-10.2-18.7
		c0.7-8,4.8-13.4,12.4-15.8c2.9-1,4.8-2.1,4.2-5.4c-0.8-4.9,2.4-4.8,5.8-4.9c3.6-0.1,5.9,0.8,5.2,5C46.4,36.1,46.6,37.1,46.7,38.5z"
		/>
	<path fill="#FCFDFD" d="M75.1,50c-0.7-2.3-1.4-4.3-2.1-6.7c31.8-4.2,56,8.7,76.6,30.8c-16.9,22.5-50.8,37.8-76.7,31.3
		c-0.5-2.3,1-4.1,1.5-6.7c11.3,3.3,21.6,2.3,29.9-6.5c5.3-5.6,7.4-12.5,6.8-20.2C109.7,55.5,95.6,46.7,75.1,50z"/>
	<path fill="#FCFDFD" d="M91,60.5c-3.5,3-5.7,6.3-2.4,10c3.7,4.2,7.4,2,10.8-1.4c2,6.5,1.1,12-3.5,16.4c-4.2,4.1-9.3,5.4-15.2,3.8
		c-2.9-0.8-4.1-2-3.5-5.2c1.2-5.9,1.2-12,0.3-17.9c-0.8-5.3,1.9-6.3,5.8-6.9C85.9,58.9,88.1,59.3,91,60.5z"/>
</g>
</svg>
