<?xml version="1.0" encoding="UTF-8" standalone="no"?>
<!-- Generator: Adobe Illustrator 22.1.0, SVG Export Plug-In . SVG Version: 6.00 Build 0)  -->

<svg
   version="1.1"
   x="0px"
   y="0px"
   viewBox="0 0 250 197"
   enable-background="new 0 0 250 197"
   xml:space="preserve"
   id="svg452"
   sodipodi:docname="N_STD_T_DCR_SHORTCUT_2.SVG"
   inkscape:version="1.2 (dc2aedaf03, 2022-05-15)"
   xmlns:inkscape="http://www.inkscape.org/namespaces/inkscape"
   xmlns:sodipodi="http://sodipodi.sourceforge.net/DTD/sodipodi-0.dtd"
   xmlns="http://www.w3.org/2000/svg"
   xmlns:svg="http://www.w3.org/2000/svg"><defs
   id="defs456" /><sodipodi:namedview
   id="namedview454"
   pagecolor="#ffffff"
   bordercolor="#000000"
   borderopacity="0.25"
   inkscape:showpageshadow="2"
   inkscape:pageopacity="0.0"
   inkscape:pagecheckerboard="0"
   inkscape:deskcolor="#d1d1d1"
   showgrid="false"
   inkscape:zoom="5.213198"
   inkscape:cx="65.602726"
   inkscape:cy="98.787731"
   inkscape:window-width="2448"
   inkscape:window-height="1406"
   inkscape:window-x="-11"
   inkscape:window-y="-11"
   inkscape:window-maximized="1"
   inkscape:current-layer="svg452" />
<g
   id="Layer_2">
	<path
   fill="#4285B7"
   d="M243,197H7c-3.9,0-7-3.1-7-7V7c0-3.9,3.1-7,7-7h236c3.9,0,7,3.1,7,7v183C250,193.9,246.9,197,243,197z"
   id="path428" /><rect
   style="fill:#ffffff;fill-opacity:1"
   id="rect1057-1"
   width="16.304771"
   height="14.002921"
   x="82.962509"
   y="105.21373" />
</g>
<g
   id="Layer_1"
   transform="translate(-6.5219084,10.166504)">
	<g
   id="g449">
		
		
		
		
		<path
   fill="#ffffff"
   d="m 95.3,125.8 c 6.8,-2.4 12.7,-5.2 20,-3.2 4.7,1.3 10.1,0.9 15.1,0.9 3.6,-0.1 5.8,1.7 7,4.6 5.4,14.1 6.4,28.5 0.6,42.7 -1.2,2.8 -4.5,5.1 -7.3,6.9 -10.3,6.7 -21.6,5 -32.8,3.3 -3,-0.5 -6.4,-2.5 -8.4,-4.9 -6.6,-7.9 -12.7,-16.3 -18.7,-24.6 -3.4,-4.7 -2.3,-8.8 3.1,-10.6 2,-0.7 5.3,0 6.9,1.4 3.2,2.8 5.6,6.5 9.1,9.4 -2.5,-6.4 -5,-12.7 -7.6,-19.1 -3.8,-9.6 -7.8,-19.1 -11.3,-28.7 -0.9,-2.4 -1.1,-5.7 -0.1,-8 0.8,-1.8 4.2,-3.9 5.8,-3.4 2.7,0.7 5.9,2.9 7.1,5.3 3.4,6.8 5.8,14.1 8.7,21.2 0.8,2.2 1.8,4.4 2.8,6.8 z"
   id="path439" />
		
		
		
		
	</g>
</g>
<rect
   style="fill:#ffffff;fill-opacity:1;stroke-width:0.914735"
   id="rect900"
   width="7.8646545"
   height="90.92308"
   x="3.4527752"
   y="45.461536" /><rect
   style="fill:#ffffff;fill-opacity:1;stroke-width:0.999191"
   id="rect902"
   width="118.54527"
   height="11.701076"
   x="3.4527743"
   y="36.062313" /><rect
   style="fill:#ffffff;fill-opacity:1;stroke-width:0.792996"
   id="rect904"
   width="7.8646536"
   height="83.825706"
   x="114.13338"
   y="44.310612" /><rect
   style="fill:#ffffff;fill-opacity:1;stroke-width:0.921132"
   id="rect908"
   width="66.37001"
   height="8.631938"
   x="3.4527752"
   y="130.43817" /><rect
   style="fill:#ffffff;fill-opacity:1"
   id="rect1057"
   width="16.304771"
   height="14.002921"
   x="25.814022"
   y="56.587147" /><rect
   style="fill:#ffffff;fill-opacity:1"
   id="rect1057-5"
   width="16.304771"
   height="14.002921"
   x="25.526291"
   y="79.509743" /><rect
   style="fill:#ffffff;fill-opacity:1"
   id="rect1057-0"
   width="16.304771"
   height="14.002921"
   x="54.107597"
   y="80.277023" /><rect
   style="fill:#ffffff;fill-opacity:1"
   id="rect1057-3"
   width="16.304771"
   height="14.002921"
   x="84.113419"
   y="80.085197" /><rect
   style="fill:#ffffff;fill-opacity:1"
   id="rect1057-4"
   width="16.304771"
   height="14.002921"
   x="25.718109"
   y="105.40556" /><rect
   style="fill:#ffffff;fill-opacity:1"
   id="rect1057-21"
   width="16.304771"
   height="14.002921"
   x="53.723953"
   y="105.981" /><rect
   style="fill:#ffffff;fill-opacity:1"
   id="rect1057-2"
   width="16.304771"
   height="14.002921"
   x="54.107594"
   y="56.683056" /><rect
   style="fill:#ffffff;fill-opacity:1"
   id="rect1057-26"
   width="16.304771"
   height="14.002921"
   x="83.921616"
   y="57.450344" /></svg>
