<?xml version="1.0" encoding="utf-8"?>
<!-- Generator: Adobe Illustrator 22.1.0, SVG Export Plug-In . SVG Version: 6.00 Build 0)  -->
<svg version="1.1" id="Layer_1" xmlns="http://www.w3.org/2000/svg" xmlns:xlink="http://www.w3.org/1999/xlink" x="0px" y="0px"
	 viewBox="0 0 250 197" enable-background="new 0 0 250 197" xml:space="preserve">
<g>
	<path fill="#468CBC" d="M0,29L0,6c0-3.3,2.7-6,6-6c79.4,0,158.7,0,238.1-0.1c3.3,0,6,2.7,6,6c-0.1,61.7-0.1,123.4,0,185.2
		c0,3.3-2.7,6-6,6c-79.4-0.1-158.8-0.1-238.2,0c-3.3,0-6-2.7-6-6C0.1,149.7,0,108.4,0,67c5.2,6.6,10.8,12.6,19.8,14.8
		c0-5,0-9.6,0-14.3c0-7,2.3-9.3,9.2-9.4c10.3-0.1,20.7-0.2,31,0.1c3.9,0.1,5.1-1.4,5.7-4.9c3.9-23.7-18.5-44.9-42.2-40
		C13.5,15.5,6.3,21.5,0,29z M108.8,134.4c-4.6,6.5-9,12.3-13,18.4c-3,4.5-7.3,7.1-11.7,9.9c-1.5,1-3.2,1-4.7-0.1
		c-1.3-1-1.6-2.5-1.2-4.1c1.4-5.1,2.5-10.2,5.9-14.7c7.9-10.7,15.4-21.7,23.2-32.5c1.6-2.2,2.5-4.5,2.2-7.3c-0.3-3.4-0.3-6.7,0-10.1
		c0.4-3.7-0.6-5.2-4.4-5c-5.6,0.3-11.3-0.1-17,0.1c-4.7,0.2-6.2-1.8-6.1-6.2c0.2-5.3-0.2-10.7,0.1-16c0.2-3.6-1.1-4.5-4.5-4.5
		c-16,0.2-32,0.2-48,0c-4.2,0-5.9,1.3-5.8,5.8c0.1,36,0.1,71.9,0,107.9c0,4.2,1.2,6,5.7,6c24.8-0.1,49.6-0.1,74.4,0
		c4.2,0,5.6-1.6,5.5-5.6c-0.1-10,0-20-0.1-30C109.4,142.8,110.1,139,108.8,134.4z M91.5,151.9c1.8-0.2,2.1-1.5,2.8-2.4
		c6.3-8.8,12.4-17.6,18.8-26.3c1.9-2.6,1.4-3.8-1.1-5.3c-2.1-1.3-3.6-3.2-5.9,0.2c-6,8.9-12.4,17.6-18.6,26.4
		c-0.7,1-2.4,2.1-1.2,3.4C87.8,149.6,89.8,150.7,91.5,151.9z M87.2,62c0,7.1-0.1,12.7,0,18.2c0,1.8,1,3.5,2.8,3.6
		c6.1,0.2,12.3,0.1,16.8,0.1C100.9,77.2,94.6,70.2,87.2,62z M120.3,113c-1.5-2.4-3.8-4-6.1-4.6c-1.9-0.5-3.3,2.3-3.4,3.6
		c-0.1,3.1,3.1,4.1,5.3,4.9C118.4,117.7,118.7,114.5,120.3,113z M81.2,159.5c-0.3,0.7,0.4,1.2,1,0.8c1.3-1,2.5-2,4-2.7
		c4.3-1.9,3.8-3,1.2-5c-3.6-2.8-4.8-1.6-5.2,4C82.1,157.7,81.7,158.6,81.2,159.5z"/>
	<path fill="#FBFCFD" d="M0,29c6.3-7.5,13.5-13.5,23.5-15.6c23.7-4.9,46.1,16.2,42.2,40c-0.6,3.5-1.7,5-5.7,4.9
		c-10.3-0.3-20.7-0.1-31-0.1c-6.9,0-9.2,2.4-9.2,9.4c0,4.6,0,9.2,0,14.3C10.8,79.6,5.2,73.6,0,67c0-5.7,0-11.3,0-17
		c2.1-0.8,6.3,1.3,6.3-1.7c0-2.8-4-1-6.3-1.3C0,41,0,35,0,29z M30.6,52.5c1.9-0.1,3.8-1,3.9-3c0.2-3.8,2.9-5.4,5.2-7.5
		c2.8-2.6,5.7-5,8.5-7.7c1-1,3.5-2,1.7-3.8c-1.4-1.5-2.6,0.6-3.6,1.5c-3.9,3.4-7.6,7-11.5,10.3c-2.7,2.4-5.5,2.6-8.3-0.1
		c-3.1-3-6.3-5.9-9.5-8.8c-0.8-0.7-1.7-2-2.9-0.9c-1.3,1.1-0.2,2,0.6,2.9c0.6,0.6,1.2,1.1,1.7,1.8c3.7,4.2,9.5,6.7,10.5,13.1
		C27.1,51.8,28.8,52.4,30.6,52.5z M58.3,46.8c-1.3,0.3-3.5-0.7-3.8,1.2c-0.3,2.1,1.8,1.9,3.2,1.8c1.5,0,3.9,0.7,4-1.5
		C61.9,46.2,59.6,47.1,58.3,46.8z M28.9,21c0.5,1-0.6,3.3,1.7,3.2c2.1-0.1,1.4-2.3,1.4-3.6c0-1.3,0.7-3.5-1.6-3.4
		C28.3,17.3,29.2,19.4,28.9,21z"/>
	<path fill="#468CBC" d="M0,47c2.2,0.2,6.2-1.5,6.3,1.3c0.1,3-4.1,0.9-6.3,1.7C0,49,0,48,0,47z"/>
	<path fill="#FBFCFD" d="M108.8,134.4c1.3,4.5,0.7,8.3,0.7,12.1c0.1,10-0.1,20,0.1,30c0,4-1.3,5.6-5.5,5.6
		c-24.8-0.2-49.6-0.1-74.4,0c-4.4,0-5.7-1.7-5.7-6c0.1-36,0.1-71.9,0-107.9c0-4.4,1.6-5.8,5.8-5.8c16,0.1,32,0.1,48,0
		c3.4,0,4.7,0.9,4.5,4.5c-0.3,5.3,0.1,10.7-0.1,16c-0.2,4.4,1.4,6.4,6.1,6.2c5.6-0.3,11.3,0.1,17-0.1c3.6-0.2,4.6,1.1,4.4,4.5
		c-0.3,3.6-0.2,7.3,0,11c0.1,2.6-0.7,4.8-2.3,6.9c-7.8,10.8-15.3,21.8-23.2,32.5c-3.3,4.5-4.4,9.6-5.9,14.7
		c-0.4,1.6-0.1,3.1,1.2,4.1c1.4,1.1,3.1,1.1,4.7,0.1c4.3-2.8,8.7-5.4,11.7-9.9C99.8,146.7,104.2,140.9,108.8,134.4z M70,110.8
		c-6.1,0-12.3,0-18.4,0c-1.4,0-3.4-0.5-3.6,1.6c-0.2,2.4,1.8,2.4,3.5,2.4c12.4,0,24.9,0,37.3,0c1.5,0,3.3,0,3.4-2c0-2.6-2.2-2-3.7-2
		C82.3,110.8,76.2,110.8,70,110.8z M65.9,135.2c4.8,0,9.6,0,14.4,0c1.4,0,3.4,0.4,3.4-1.8c0-1.9-1.7-2.2-3.3-2.2
		c-9.8,0-19.6,0-29.3,0c-1.6,0-3.2,0.3-3.1,2.4c0.1,2,1.8,1.6,3,1.6C56,135.2,60.9,135.2,65.9,135.2z M60.2,92.6
		C60.2,92.6,60.2,92.7,60.2,92.6c3.3,0,6.6,0,9.9,0c1.6,0,3.2-0.2,3.2-2.2c0-1.7-1.5-2.1-2.9-2.1c-6.6,0-13.3,0-19.9,0
		c-1.4,0-2.8,0.4-2.7,2.2c0.1,1.7,1.5,2,2.9,2.1C53.9,92.7,57.1,92.6,60.2,92.6z M60.9,153c-3.5,0-7,0-10.5,0
		c-1.3,0-2.4,0.4-2.4,1.9c0,1.5,1,2,2.3,2c6.8,0,13.6,0,20.5,0c1.3,0,2.4-0.5,2.4-2c0-1.9-1.4-2-2.8-2C67.2,153,64,153,60.9,153z
		 M34.3,159.9c0.9,0,8.6-7,8.6-7.9c0-1.2-0.6-2-1.8-1.4c-1.2,0.6-2.2,1.5-3.2,2.3c-1.9,1.6-3.5,3.9-5.7,0.2c-0.8-1.3-2-1.1-2.6,0.3
		C29.1,154.6,33.1,159.9,34.3,159.9z M42.9,109.4c-0.1-0.2-0.3-0.8-0.6-1c-1.3-0.8-2.1,0.3-3,1c-2.3,1.7-4.2,6-7.5,1.1
		c-0.3-0.5-1.2-0.5-1.8,0.1c-0.7,0.7-0.6,1.5-0.1,2.2c1.3,1.8,2.1,4.1,4.5,4.9C35.2,117.9,42.9,110.3,42.9,109.4z M31.2,130.7
		c-0.7,0.4-1.3,0.5-1.4,0.9c-0.8,2.2,1.2,3.2,2.2,4.6c0.7,1.1,1.6,3,3.4,1.5c2.4-2,4.7-4.2,7-6.3c0.6-0.6,0.9-1.5,0.1-2.1
		c-0.4-0.3-1.3-0.4-1.8-0.2C37.6,130.3,35.6,137.1,31.2,130.7z M43,88.1c-0.3-0.3-0.5-0.9-0.9-1c-1.3-0.5-2.1,0.5-3,1.2
		c-2.2,1.7-4,5.8-7.2,1c-0.2-0.3-1.3-0.4-1.8-0.1c-0.8,0.5-0.6,1.3-0.2,2.2c2,5,4.3,5.6,8.4,1.8C39.9,91.7,42.1,90.5,43,88.1z"/>
	<path fill="#F7F9FB" d="M91.5,151.9c-1.6-1.2-3.7-2.4-5.2-4c-1.2-1.3,0.5-2.4,1.2-3.4c6.2-8.8,12.6-17.5,18.6-26.4
		c2.3-3.4,3.8-1.5,5.9-0.2c2.5,1.5,3,2.7,1.1,5.3c-6.4,8.7-12.5,17.5-18.8,26.3C93.6,150.5,93.2,151.7,91.5,151.9z"/>
	<path fill="#D3DFED" d="M87.2,62c7.3,8.2,13.7,15.3,19.6,21.9c-4.5,0-10.6,0.1-16.8-0.1c-1.9-0.1-2.8-1.8-2.8-3.6
		C87.2,74.6,87.2,69.1,87.2,62z"/>
	<path fill="#F7F9FB" d="M120.3,113c-1.7,1.5-1.9,4.7-4.2,3.9c-2.1-0.8-5.4-1.8-5.3-4.9c0-1.3,1.4-4.1,3.4-3.6
		C116.6,108.9,118.8,110.6,120.3,113z"/>
	<path fill="#F7F9FB" d="M81.1,159.6c0.4-1.7,1-3.4,1.2-5.1c0.6-3.7,1.9-4.2,5-1.8c2.3,1.8,2.9,2.8,0,4.4c-1.8,1-3.5,2.2-5.3,3.3
		C81.8,160.1,81.5,159.8,81.1,159.6z"/>
	<path fill="#468CBC" d="M30.6,52.5c-1.8-0.1-3.5-0.7-3.8-2.2c-1-6.5-6.8-8.9-10.5-13.1c-0.5-0.6-1.2-1.2-1.7-1.8
		c-0.8-0.8-1.9-1.7-0.6-2.9c1.3-1.1,2.1,0.2,2.9,0.9c3.2,2.9,6.4,5.8,9.5,8.8c2.8,2.7,5.6,2.5,8.3,0.1c3.9-3.4,7.6-6.9,11.5-10.3
		c1-0.9,2.2-2.9,3.6-1.5c1.8,1.8-0.7,2.8-1.7,3.8c-2.7,2.7-5.7,5.1-8.5,7.7c-2.2,2.1-5,3.7-5.2,7.5C34.4,51.5,32.5,52.4,30.6,52.5z
		 M32.6,48.3c-0.2-1.3-0.8-2.2-2.2-2.2c-1.3,0-2.1,0.9-2.1,2.2c0,1.1,0.8,1.8,1.9,1.9C31.6,50.4,32.3,49.6,32.6,48.3z"/>
	<path fill="#468CBC" d="M58.3,46.8c1.3,0.3,3.6-0.6,3.4,1.5c-0.2,2.2-2.5,1.5-4,1.5c-1.4,0-3.5,0.3-3.2-1.8
		C54.8,46.1,57,47.1,58.3,46.8z"/>
	<path fill="#468CBC" d="M28.9,21c0.4-1.5-0.6-3.7,1.5-3.8c2.3-0.1,1.6,2.1,1.6,3.4c0,1.3,0.7,3.5-1.4,3.6
		C28.3,24.3,29.4,21.9,28.9,21z"/>
	<path fill="#468CBC" d="M70,110.8c6.1,0,12.3,0,18.4,0c1.5,0,3.7-0.6,3.7,2c0,2.1-1.9,2-3.4,2c-12.4,0-24.9,0-37.3,0
		c-1.7,0-3.7,0-3.5-2.4c0.2-2.1,2.2-1.6,3.6-1.6C57.8,110.8,63.9,110.8,70,110.8z"/>
	<path fill="#468CBC" d="M65.9,135.2c-5,0-9.9,0-14.9,0c-1.2,0-2.9,0.3-3-1.6c-0.1-2,1.5-2.3,3.1-2.4c9.8,0,19.6,0,29.3,0
		c1.6,0,3.3,0.3,3.3,2.2c0,2.2-2,1.8-3.4,1.8C75.5,135.2,70.7,135.2,65.9,135.2z"/>
	<path fill="#628DC0" d="M60.2,92.6c-3.1,0-6.3,0-9.4,0c-1.4,0-2.8-0.3-2.9-2.1c-0.1-1.8,1.3-2.2,2.7-2.2c6.6-0.1,13.3,0,19.9,0
		c1.4,0,2.9,0.4,2.9,2.1c0,2-1.7,2.2-3.2,2.2C66.8,92.7,63.5,92.7,60.2,92.6C60.2,92.7,60.2,92.6,60.2,92.6z"/>
	<path fill="#468CBC" d="M60.9,153c3.2,0,6.3,0,9.5,0c1.4,0,2.8,0.1,2.8,2c0,1.5-1.1,2-2.4,2c-6.8,0-13.6,0-20.5,0
		c-1.3,0-2.3-0.5-2.3-2c0-1.5,1.1-1.9,2.4-1.9C53.9,153,57.4,153,60.9,153z"/>
	<path fill="#468CBC" d="M34.3,159.9c-1.2,0-5.2-5.3-4.7-6.5c0.6-1.5,1.8-1.6,2.6-0.3c2.2,3.6,3.8,1.4,5.7-0.2c1-0.9,2-1.8,3.2-2.3
		c1.2-0.6,1.8,0.2,1.8,1.4C42.9,152.8,35.2,159.9,34.3,159.9z"/>
	<path fill="#468CBC" d="M42.9,109.4c0,0.9-7.7,8.5-8.4,8.3c-2.4-0.8-3.2-3.1-4.5-4.9c-0.5-0.7-0.6-1.5,0.1-2.2
		c0.6-0.6,1.4-0.5,1.8-0.1c3.3,4.9,5.2,0.6,7.5-1.1c0.9-0.7,1.7-1.7,3-1C42.6,108.6,42.8,109.1,42.9,109.4z"/>
	<path fill="#468CBC" d="M31.2,130.7c4.3,6.5,6.3-0.3,9.4-1.6c0.5-0.2,1.4-0.1,1.8,0.2c0.9,0.6,0.6,1.5-0.1,2.1
		c-2.3,2.2-4.6,4.3-7,6.3c-1.8,1.5-2.7-0.4-3.4-1.5c-0.9-1.4-2.9-2.4-2.2-4.6C29.9,131.2,30.6,131,31.2,130.7z"/>
	<path fill="#468CBC" d="M43,88.1c-0.9,2.5-3.1,3.6-4.7,5.1c-4.1,3.8-6.5,3.3-8.4-1.8c-0.3-0.9-0.6-1.7,0.2-2.2
		c0.4-0.3,1.6-0.2,1.8,0.1c3.2,4.7,5,0.7,7.2-1c0.9-0.7,1.7-1.7,3-1.2C42.5,87.2,42.7,87.7,43,88.1z"/>
	<path fill="#F7F9FB" d="M32.6,48.3c-0.3,1.3-1.1,2-2.4,1.9c-1.1-0.1-1.8-0.8-1.9-1.9c0-1.3,0.8-2.2,2.1-2.2
		C31.8,46.1,32.5,47.1,32.6,48.3z"/>
</g>
</svg>
