<?xml version="1.0" encoding="utf-8"?>
<!-- Generator: Adobe Illustrator 22.1.0, SVG Export Plug-In . SVG Version: 6.00 Build 0)  -->
<svg version="1.1" id="Layer_1" xmlns="http://www.w3.org/2000/svg" xmlns:xlink="http://www.w3.org/1999/xlink" x="0px" y="0px"
	 viewBox="0 0 250 197" enable-background="new 0 0 250 197" xml:space="preserve">
<g>
	<path fill="#FF9E55" d="M0,41v-7c4.2,0.9,8.2,0.4,9.4-4.1c0.9-3.6,3-4.2,5.8-4.9c3.1-0.7,6.1-1.6,9.2-2.4c1.1-0.3,2.2-0.8,3.3,0
		c3.8,2.7,7.6,4.9,8.5,10.6c1.2,7.3,3.7,14.5,5.9,21.6c0.7,2.5,0.9,4.4-1.1,6.7c-2.8,3.3-1.8,7.8,1.5,10.1c3.3,2.3,8.3,1.7,10-2
		c1.5-3.3,3.8-4.2,6.8-4.9c3.4-0.8,6.7-1.9,10.1-2.9c8.3-2.4,12-0.2,13.9,8.2c1.2,5,2.3,10,3.5,15.1c0.5,2.3,0.7,4.2-1.7,6.1
		c-3.6,3-3.2,8.2,0.1,10.9c3.1,2.4,7.9,1.8,10.3-1.3c2.7-3.6,1.7-8.5-2.5-10.6c-2.3-1.1-3.3-2.5-3.7-4.7c-1.3-6.2-2.8-12.3-4.2-18.5
		c-0.5-2.2-0.6-4,1.5-5.7c2.5-2.1,3-5.1,1.5-8.2c-1.5-3-4-4.5-7.3-4c-3.3,0.4-5.3,2.4-6.1,5.7c-0.3,1.2,0.2,3.2-1.6,3.2
		c-7.7,0.4-14.9,9.5-23.1,1.3c-0.3-0.3-0.9-0.5-1.4-0.5c-2.7-0.2-3.5-2.1-4.1-4.3c-2.1-7.9-4.2-15.7-6.6-23.5
		c-0.9-3.2-1.6-5.8,1.6-8.4c2.2-1.8,2.1-4.8,0.7-7.4c-1.4-2.6-3.6-3.8-6.5-3.8c-3,0-5.7,1.4-6.2,4.1c-0.7,4.2-3.5,4.7-6.5,5.5
		c-2.9,0.7-5.8,1.5-8.7,2.3c-1.3,0.3-2.5,1-3.6-0.4C6.4,20,3.2,20.1,0,20V6c0-3.3,2.7-6,6-6c79.3,0,158.7,0,238,0c3.3,0,6,2.7,6,6
		c0,61.7,0,123.3,0,185c0,3.3-2.7,6-6,6c-79.3,0-158.7,0-238,0c-3.3,0-6-2.7-6-6c0-3,0-6,0-9c1.3,0.1,2.7,0.2,4,0.2
		c7.9,0,7.8,0,7.9-8c0-19,0-38,0.2-57c0.1-5-2.2-10.8,3.6-14.4c0.3-0.2,0.4-0.9,0.4-1.4c-0.3-8.3,1.3-16.7-0.1-24.9
		c-1.2-6.6-5.8-9.4-12.1-7.8C2.4,69,1.3,68.4,0,68v-3c6.1,0.4,11.1-1.3,13.9-7.2C17.5,50.2,11.7,39.5,0,41z M36.2,162.1
		c0,2.5,0,5,0,7.5c0.2,14.8-2.3,12.3,13.2,12.7c3.8,0.1,4.9-1.4,4.9-5c-0.1-10,0.2-20,0.3-30c0-1.5-0.6-3.4,0.8-4.2
		c4.1-2.3,3.5-6.1,3.6-9.6c0.1-5.3,0.1-10.7,0-16c0-4.4-1.8-8-5.1-11c-2.6-2.4-5.1-2-8-0.5c-0.7,0.4-2.2,0.1-2.8-0.5
		c-2-2-3.7-0.8-5.3,0.3c-3.6,2.5-5.9,5.9-5.9,10.4c-0.1,7,0,14,0,21c0,1.3-0.3,3,1,3.7c3.9,2,3.1,5.4,3.1,8.7
		C36.2,153.7,36.2,157.9,36.2,162.1z M103.2,156.8c0-3.5,0-7,0-10.5c0-0.3,0-0.7-0.1-1c-0.3-3.9-2.4-6.7-5.4-9.2
		c-2.4-2-4.5-1.9-7-0.1c-0.8,0.6-2.4,0.3-3.3-0.5c-1.8-1.7-3.3-0.7-4.9,0.3c-4.4,2.7-6.2,6.8-6.4,11.7c-0.2,4.8-0.1,9.6,0,14.5
		c0.1,4.2-1.2,8.8,4,11.3c1,0.5,0.8,1.8,0.6,2.7c-0.8,5.2,1.6,7,6.6,6.3c1.7-0.2,3.5-0.2,5.2,0c4.6,0.6,6.8-1,6.3-5.8
		c-0.2-1.4-0.3-3.1,1.4-3.9c3.1-1.4,3-4,2.9-6.7C103.1,162.7,103.2,159.7,103.2,156.8z M57.4,90.7c0.1-6.6-5.2-12.1-11.9-12.2
		c-6.8-0.1-12,5-12.1,11.8c-0.1,6.8,5,12.1,11.7,12.2C51.9,102.6,57.3,97.3,57.4,90.7z M89.9,132.5c6.7,0,12-5.4,11.9-12.1
		c0-6.7-5.4-11.9-12.1-11.9c-6.7,0-11.9,5.3-11.9,12.1C77.9,127.3,83.2,132.5,89.9,132.5z"/>
	<path fill="#FBFCFB" d="M0,68c1.3,0.4,2.4,1,3.8,0.7c6.4-1.6,11,1.2,12.1,7.8c1.5,8.3-0.2,16.6,0.1,24.9c0,0.5-0.1,1.2-0.4,1.4
		c-5.9,3.6-3.6,9.5-3.6,14.4c-0.3,19-0.2,38-0.2,57c0,8,0,8-7.9,8c-1.3,0-2.7-0.1-4-0.2C0,144,0,106,0,68z"/>
	<path fill="#FFFFFF" d="M0,20c3.2,0.1,6.4,0,8.6,2.8c1.1,1.4,2.3,0.7,3.6,0.4c2.9-0.8,5.8-1.5,8.7-2.3c3.1-0.8,5.9-1.3,6.5-5.5
		c0.4-2.7,3.2-4.1,6.2-4.1c2.9,0,5.2,1.2,6.5,3.8c1.4,2.6,1.5,5.6-0.7,7.4c-3.1,2.6-2.5,5.2-1.6,8.4c2.3,7.8,4.4,15.7,6.6,23.5
		c0.6,2.2,1.3,4.1,4.1,4.3c0.5,0,1.1,0.2,1.4,0.5c8.2,8.2,15.4-0.9,23.1-1.3c1.8-0.1,1.3-2.1,1.6-3.2c0.8-3.3,2.8-5.3,6.1-5.7
		c3.3-0.4,5.9,1,7.3,4c1.5,3.1,1,6.1-1.5,8.2c-2.1,1.8-2,3.6-1.5,5.7c1.4,6.2,2.8,12.3,4.2,18.5c0.5,2.2,1.5,3.6,3.7,4.7
		c4.3,2.1,5.2,7,2.5,10.6c-2.3,3.1-7.2,3.7-10.3,1.3c-3.4-2.7-3.7-7.9-0.1-10.9c2.3-1.9,2.2-3.8,1.7-6.1c-1.2-5-2.3-10-3.5-15.1
		c-2-8.4-5.6-10.6-13.9-8.2c-3.4,1-6.7,2-10.1,2.9c-3,0.7-5.3,1.6-6.8,4.9c-1.7,3.7-6.6,4.3-10,2c-3.3-2.3-4.3-6.8-1.5-10.1
		c2-2.3,1.8-4.2,1.1-6.7c-2.1-7.2-4.7-14.3-5.9-21.6c-0.9-5.6-4.7-7.9-8.5-10.6c-1.1-0.8-2.2-0.3-3.3,0c-3.1,0.8-6.1,1.7-9.2,2.4
		c-2.8,0.6-4.9,1.3-5.8,4.9c-1.2,4.5-5.2,5-9.4,4.1c0-0.7,0-1.3,0-2c1,0,1.9,0,2.9-0.1c3.1-0.3,5-2.2,4.6-5.1
		C6.9,22.4,3.5,22.4,0,23C0,22,0,21,0,20z M33.8,23.1c3.2-0.2,4.9-2,4.8-4.8c-0.1-2.8-2-4.5-5-4.3c-2.7,0.2-4.3,1.8-4.3,4.5
		C29.1,21.4,31,22.9,33.8,23.1z M81.7,61c2.9-0.4,4.6-1.9,4.6-4.9c0-2.8-1.7-4.5-4.3-4.6c-2.8-0.1-4.8,1.6-4.9,4.5
		C77,59,78.8,60.5,81.7,61z M94.6,96.5c-0.4-2.2-1.3-4.4-4.4-4.6c-2.7-0.2-4.6,1.2-4.9,3.8c-0.4,2.9,1,4.8,4,5.2
		C92.2,101.4,93.8,99.8,94.6,96.5z M51.3,65.6c-0.4-2.8-1.9-4.7-4.8-4.6c-2.9,0.1-4.5,2-4.4,4.9c0.1,2.7,1.9,4.2,4.5,4.3
		C49.5,70.3,51,68.6,51.3,65.6z"/>
	<path fill="#FBFCFB" d="M0,41c11.7-1.5,17.5,9.2,13.9,16.8C11.1,63.7,6.1,65.4,0,65C0,57,0,49,0,41z"/>
	<path fill="#FF9E55" d="M0,23c3.5-0.6,6.9-0.6,7.5,3.8c0.4,2.9-1.5,4.9-4.6,5.1C1.9,32,1,32,0,32C0,29,0,26,0,23z"/>
	<path fill="#FBFCFB" d="M36.2,162.1c0-4.2,0-8.3,0-12.5c0-3.2,0.8-6.7-3.1-8.7c-1.3-0.7-1-2.3-1-3.7c0-7,0-14,0-21
		c0-4.5,2.3-7.9,5.9-10.4c1.6-1.1,3.3-2.4,5.3-0.3c0.6,0.6,2.1,0.9,2.8,0.5c2.8-1.6,5.3-1.9,8,0.5c3.3,3,5,6.6,5.1,11
		c0,5.3,0.1,10.7,0,16c-0.1,3.6,0.5,7.4-3.6,9.6c-1.4,0.8-0.8,2.8-0.8,4.2c-0.1,10-0.4,20-0.3,30c0,3.6-1.1,5.1-4.9,5
		c-15.5-0.4-13,2.1-13.2-12.7C36.1,167.1,36.2,164.6,36.2,162.1z"/>
	<path fill="#FBFCFB" d="M103.2,156.8c0,3,0,6,0,9c0.1,2.7,0.1,5.4-2.9,6.7c-1.7,0.8-1.5,2.5-1.4,3.9c0.5,4.7-1.7,6.3-6.1,5.8
		c-1.8-0.2-3.7-0.2-5.5,0c-4.9,0.7-7.3-1.1-6.5-6.3c0.1-0.9,0.4-2.3-0.6-2.7c-5.1-2.5-3.9-7.1-4-11.3c-0.1-4.8-0.1-9.6,0-14.5
		c0.2-4.9,2-9,6.4-11.7c1.6-1,3.1-2,4.9-0.3c0.9,0.9,2.4,1.1,3.3,0.5c2.5-1.8,4.7-1.8,7,0.1c2.9,2.4,5,5.3,5.4,9.2
		c0,0.3,0.1,0.7,0.1,1C103.2,149.8,103.2,153.3,103.2,156.8z"/>
	<path fill="#FBFCFB" d="M57.4,90.7c-0.1,6.6-5.6,11.9-12.2,11.8c-6.8-0.1-11.8-5.3-11.7-12.2c0.1-6.8,5.3-11.9,12.1-11.8
		C52.2,78.6,57.5,84.1,57.4,90.7z"/>
	<path fill="#FBFCFB" d="M89.9,132.5c-6.7,0-12-5.2-12.1-11.9c0-6.8,5.1-12,11.9-12.1c6.8,0,12.1,5.2,12.1,11.9
		C101.9,127.1,96.6,132.5,89.9,132.5z"/>
	<path fill="#FF9E55" d="M33.8,23.1c-2.8-0.2-4.6-1.7-4.6-4.6c0-2.7,1.6-4.3,4.3-4.5c3-0.2,4.9,1.5,5,4.3
		C38.6,21.1,36.9,22.9,33.8,23.1z"/>
	<path fill="#FF9E55" d="M81.7,61C78.8,60.5,77,59,77.1,56c0.1-3,2.1-4.7,4.9-4.5c2.6,0.1,4.3,1.8,4.3,4.6
		C86.3,59.1,84.6,60.6,81.7,61z"/>
	<path fill="#FF9E55" d="M94.6,96.5c-0.8,3.3-2.4,4.9-5.4,4.5c-3-0.4-4.4-2.4-4-5.2c0.4-2.6,2.2-4,4.9-3.8
		C93.2,92.2,94.2,94.3,94.6,96.5z"/>
	<path fill="#FF9E55" d="M51.3,65.6c-0.3,2.9-1.7,4.7-4.7,4.6c-2.7-0.1-4.4-1.5-4.5-4.3c-0.1-2.9,1.6-4.8,4.4-4.9
		C49.4,60.9,50.9,62.8,51.3,65.6z"/>
</g>
</svg>
