<?xml version="1.0" encoding="utf-8"?>
<!-- Generator: Adobe Illustrator 22.1.0, SVG Export Plug-In . SVG Version: 6.00 Build 0)  -->
<svg version="1.1" id="Layer_1" xmlns="http://www.w3.org/2000/svg" xmlns:xlink="http://www.w3.org/1999/xlink" x="0px" y="0px"
	 viewBox="0 0 250 197" enable-background="new 0 0 250 197" xml:space="preserve">
<g>
	<path fill="#4285B7" d="M0,17V6c0-3.3,2.7-6,6-6c79.3,0,158.7,0,238,0c3.3,0,6,2.7,6,6c0,61.7,0,123.3,0,185c0,3.3-2.7,6-6,6
		c-79.3,0-158.7,0-238,0c-3.3,0-6-2.7-6-6c0-3.7,0-7.3,0-11c27.2,0,54.3,0,81.5,0c7.1,0,7.4-0.3,7.4-7.3c0-38.2,0-76.3,0-114.5
		c0-1.6,0.4-3.3-0.4-4.8C88,53.3,87.8,53,87.5,53c-9.2-0.1-18.3-0.1-27.5-0.2c-6.9,0-8-1.1-8-8.2c0-9.1,0-18.2,0-27.6H0z M86.1,46.1
		L58.7,16.4c0,9.7-0.1,17.7,0.1,25.8c0,2.1,1.6,3.8,3.9,3.9C70.9,46.2,79.1,46.1,86.1,46.1z"/>
	<path fill="#FCFCFD" d="M0,17c17.1,0,34.3,0,52,0c0,9.4,0,18.5,0,27.6c0,7.1,1.1,8.2,8,8.2c9.2,0,18.3,0.1,27.5,0.2
		c0.3,0,0.6,0.3,0.9,0.5c0.8,1.5,0.4,3.2,0.4,4.8c0,38.2,0,76.3,0,114.5c0,7-0.3,7.3-7.4,7.3c-27.2,0-54.3,0-81.5,0c0-24,0-48,0-72
		c5.5-0.1,10.9-0.2,16.4-0.1c3.6,0,6.5-1,6.4-5.1c-0.1-3.8-3.1-4.6-6.4-4.6C10.9,98.2,5.5,98.1,0,98c0-4.3,0-8.7,0-13
		c14.6,0.1,29.2,0.1,43.8,0.2c3.1,0,5.4-1.1,5.5-4.4c0.1-3.5-2.1-5-5.5-4.9C29.2,75.9,14.6,75.9,0,76c0-4.3,0-8.7,0-13
		c8.2-0.1,16.3-0.1,24.5-0.2c3.4,0,6.6-0.4,6.6-4.8c0-4.4-3.2-4.8-6.6-4.8C16.3,53.1,8.2,53.1,0,53C0,41,0,29,0,17z M37.3,146.9
		c0.4,2.5-1.8,7.1,3.3,9.7c0.6,0.3,0.5,2.1,0.6,3.3c0.1,2.8,0,5.7,0,8.5c0,2.2-0.2,5,2.8,4.9c4.6-0.2,9.6,1.8,13.9-1.3
		c0.2-0.1,0.2-0.6,0.2-1c0.6-6.3-0.1-12.5,4.1-18.7c2.6-3.8,1.4-10.7-0.3-16.1c-1.8-5.6-5.1-7.2-11.1-6.1c-0.9,0.2-2.2,0.1-2.8-0.4
		c-2.6-2-4.4-0.3-6.2,1.1C37,134.7,36.9,140.1,37.3,146.9z M61.2,115.3c-0.1-6.4-5.2-11.4-11.5-11.2c-6.1,0.2-11,5.2-11,11.3
		c0,6.3,5.2,11.5,11.4,11.5C56.4,126.9,61.2,121.8,61.2,115.3z M65,93c-1.6,0-2.6-0.1-3.6,0c-2.5,0.4-6.5-1.5-6.6,2.9
		c-0.1,4.5,3.9,2.9,6.4,3.2c1.1,0.1,2.2,0.1,3.9,0.2c0,2.4,0.1,4.5,0,6.6c-0.1,2,0.8,3.4,2.7,3.6c2.1,0.2,3.2-1.2,3.5-3.4
		c0.2-2.2-0.7-4.6,0.9-7.1c1.9,0,3.8,0,5.8,0c2.2,0,3.5-1,3.4-3.3C81.3,93.8,80,93,78,93c-2.1,0-4.2,0-6.2,0
		c-1.1-2.2-0.6-4.1-0.7-5.8c-0.1-2.3-0.3-4.6-3.3-4.5c-2.7,0.1-2.9,2.2-2.9,4.3C65,88.8,65,90.6,65,93z"/>
	<path fill="#4285B7" d="M0,76c14.6-0.1,29.2-0.1,43.8-0.2c3.4,0,5.5,1.4,5.5,4.9c-0.1,3.3-2.4,4.4-5.5,4.4
		C29.2,85.1,14.6,85.1,0,85C0,82,0,79,0,76z"/>
	<path fill="#4285B7" d="M0,53c8.2,0.1,16.3,0.1,24.5,0.2c3.4,0,6.6,0.4,6.6,4.8c0,4.4-3.2,4.8-6.6,4.8C16.3,62.9,8.2,62.9,0,63
		C0,59.7,0,56.3,0,53z"/>
	<path fill="#4285B7" d="M0,98c5.5,0.1,10.9,0.2,16.4,0.2c3.3,0,6.3,0.8,6.4,4.6c0.1,4.1-2.8,5.1-6.4,5.1c-5.5,0-10.9,0.1-16.4,0.1
		C0,104.7,0,101.3,0,98z"/>
	<path fill="#D0D8EA" d="M86.1,46.1c-7,0-15.2,0.1-23.4,0c-2.3,0-3.8-1.7-3.9-3.9c-0.2-8-0.1-16.1-0.1-25.8
		C68.6,27.1,77.5,36.8,86.1,46.1z"/>
	<path fill="#4285B7" d="M37.3,146.9c-0.4-6.9-0.3-12.2,4.5-16c1.8-1.4,3.6-3.1,6.2-1.1c0.7,0.5,3.4,0.6,4.3,0.5
		c3-0.5,3.1-3.8,6.9,1c3,3.8,1.2,1.5,2.8,5c2.3,5.1,2.9,12.2,0.3,16.1c-4.1,6.2-3.5,12.3-4.1,18.7c0,0.3,0,0.8-0.2,1
		c-4.4,3.2-9.3,1.2-13.9,1.3c-3,0.1-2.8-2.7-2.8-4.9c0-2.8,0-5.7,0-8.5c0-1.1,0-3-0.6-3.3C35.5,154,37.7,149.4,37.3,146.9z"/>
	<path fill="#4285B7" d="M61.2,115.3c0.1,6.5-4.8,11.6-11.1,11.6c-6.2,0.1-11.4-5.2-11.4-11.5c0-6.1,4.9-11.1,11-11.3
		C55.9,104,61.1,108.9,61.2,115.3z"/>
	<path fill="#4285B7" d="M65,93c0-2.4,0-4.2,0-6c-0.1-2.1,0.1-4.2,2.9-4.3c3-0.1,3.2,2.2,3.3,4.5c0.1,1.8-0.4,3.6,0.7,5.8
		c1.9,0,4.1,0,6.2,0c2,0,3.3,0.8,3.3,2.9c0.1,2.3-1.3,3.3-3.4,3.3c-2,0-4,0-5.8,0c-1.6,2.4-0.7,4.8-0.9,7.1
		c-0.2,2.2-1.4,3.5-3.5,3.4c-1.9-0.2-2.7-1.6-2.7-3.6c0.1-2.1,0-4.2,0-6.6c-1.6-0.1-2.7-0.1-3.9-0.2c-2.5-0.3-6.5,1.3-6.4-3.2
		c0.1-4.4,4.2-2.5,6.6-2.9C62.4,92.9,63.4,93,65,93z"/>
</g>
</svg>
