<?xml version="1.0" encoding="utf-8"?>
<!-- Generator: Adobe Illustrator 22.1.0, SVG Export Plug-In . SVG Version: 6.00 Build 0)  -->
<svg version="1.1" id="Layer_1" xmlns="http://www.w3.org/2000/svg" xmlns:xlink="http://www.w3.org/1999/xlink" x="0px" y="0px"
	 viewBox="0 0 250 197" enable-background="new 0 0 250 197" xml:space="preserve">
<g>
	<path fill="#FF9E55" d="M0,17c0-5,0-3.4,0-8.4V6c0-3.3,2.7-6,6-6h2.1c0.6,0,0.4,0,1.1,0c80,0,154.8,0,234.8-0.1c3.3,0,6,2.7,6,6
		c-0.1,61.7-0.1,123.4,0,185.2c0,3.3-2.7,6-6,6C164.1,197,92,197,12,197c-0.8,0-3.4,0-6,0c-3.3,0-6-2.7-6-6v-2.3c0-12,0-19.7,0-31.7
		c1.4,0.5,2.8,0.9,4.1,1.6c15.3,8,30.6,16.1,46,24.1c1.4,0.7,2.6,2.1,4.7,1.4c-3.1-18.2-6.1-36.4-9.4-54.6c-0.7-3.9-0.1-6.5,2.8-9.3
		c12.5-11.9,24.9-24.1,37.3-36.2c0.9-0.8,2.6-1.5,1.9-3.1c-0.5-1.2-2.1-0.8-3.2-1c-17.6-2.6-35.2-5.3-52.8-7.7
		c-3.7-0.5-5.1-2.5-6.5-6.1c-2.5-6.3-5.5-12.4-8.9-18.4C10.2,37.7,6.2,26.8,0,17z"/>
	<path fill="#FEFEFD" d="M0,17c5.4,8.6,9.2,18,13.9,27c4.1,7.8,7.8,15.8,11.6,23.8c1.2,2.6,2.7,4.1,5.8,4.5
		C49,74.7,66.6,77.4,84.2,80c1.1,0.2,2.6-0.2,3.2,1c0.7,1.6-1,2.3-1.9,3.1c-12.4,12.1-24.7,24.3-37.3,36.2c-2.9,2.8-3.5,5.4-2.8,9.3
		c3.3,18.1,6.3,36.3,9.4,54.6c-2.1,0.8-3.3-0.6-4.7-1.4c-15.3-8-30.6-16.1-46-24.1c-1.3-0.7-2.8-1.1-4.1-1.6C0,110.3,0,63.7,0,17z"
		/>
</g>
</svg>
