<?xml version="1.0" encoding="utf-8"?>
<svg version="1.1" id="Layer_1" xmlns="http://www.w3.org/2000/svg" xmlns:xlink="http://www.w3.org/1999/xlink" x="0px" y="0px"
	 viewBox="0 0 250 197" enable-background="new 0 0 250 197" xml:space="preserve">
<g>
	<path fill="#FF9E55" d="M-0.6,75c0.2-4.8,0.2-6.1,0.3-7.5S-0.2,64.8,0,60h24.5H49c-0.1-1.2,0-2.4,0-3.5s-0.2-2.3-0.8-3.5H24.1H0
		v-8.5V36h19.7h19.7v-7v-7c-1.5-0.5-2.9-0.6-4.2-0.7s-2.7,0.1-4,0.1c-1.6,0.1-3,0-4.1-0.6c-1.1-0.6-1.9-1.6-2.5-3.6
		c-0.6-2.1-1.9-3.6-3.5-4.7s-3.7-1.5-5.8-1.4c-2.1,0-4.1,0.6-5.7,1.6s-2.8,2.6-3.5,4.7c-0.6,1.8-1.3,3-2.3,3.5S1.9,21.5,0,21.3
		c0-5.6,0-9.9,0-12.8V6c0-3.3,2.7-6,6-6c38.4,0,79.9,0,117.9,0c40,0,80.1,0,120.1,0c1.7,0,3.2,0.7,4.2,1.8S250,4.3,250,6
		c0,30.8,0,61.7,0,92.5s0,61.7,0,92.5c0,1.7-0.7,3.2-1.8,4.2c-1.1,1.1-2.6,1.8-4.2,1.8c-39.9,0-79.7,0-119.6,0
		c-37.9,0-80.1,0-118.4,0c-3.3,0-6-2.7-6-6l0-0.2c0-1.5,0-3,0-5.5c2.7-0.1,1.8,0,2.9-0.2c1.9,0,1.3,0,2.4,0c9.7,0,19.5,0,29.2,0
		s19.5,0,29.2,0c4,0,7.3-1.2,9.7-3.4c2.4-2.1,3.7-5.2,3.7-9c0-22.7,0.1-45.3,0.1-68s0-45.3,0-68c0-2.7-0.9-5.3-2.4-7.4
		s-3.7-3.6-6.2-4.2c-3.6-0.8-7.3-1.1-11.1-1c-3.7,0-7.5,0.3-11.4,0.5c0.1,1.3,0,2.4,0,3.5c0,1.1,0.2,2.1,0.8,3.3c2.7,0,5.5,0,8.2,0
		s5.5,0,8.2,0.1c2.2,0,3.9,0.6,5,1.7s1.8,2.8,1.8,5.1c0,22.2,0,44.3,0,66.5c0,22.2,0,44.3,0,66.5c0,2.3-0.5,4-1.6,5.1
		c-1.1,1.1-2.8,1.7-5,1.7c-10.6,0-21.2,0-31.7-0.1S10.6,178,0,178v-36.5V105c3.3-0.3,6.5-0.2,9.8-0.1s6.5,0.1,9.8-0.5
		c0.1-1.2,0.3-2.2,0.3-3.3s-0.2-2.1-0.7-3.1H9.6H0c-0.2-4.7-0.3-6.1-0.4-7.5c-0.1-1.4-0.1-2.7-0.4-7.5c5.8-0.6,11.7-0.6,17.5-0.6
		s11.7,0.2,17.5,0.1c2.4,0,4.8-0.1,7.1,0s4.7,0,7.1,0c0.3-1.3,0.5-2.4,0.5-3.5c0-1.1-0.2-2.3-0.5-3.5c-1,0-2,0-3.1,0
		c-1,0-2.1,0-3.2,0c-7.2-0.1-14.3,0-21.5,0.1S6.5,75.5-0.6,75z M19.3,142c-0.9,1.2-1.6,2.4-2.3,3.5c-0.7,1.1-1.5,2.1-2.3,3
		c-1.3,1.5-1.6,2.7-1.3,3.8c0.3,1.1,1.3,2.1,2.6,3.1c1.5,1.1,3.2,2.1,4.9,3s3.4,1.8,5.2,2.8c-0.2,0.6-0.3,1.1-0.5,1.6
		c-0.2,0.5-0.3,0.9-0.5,1.4c-0.9,1.8-1.2,3.1-0.8,4.3c0.4,1.1,1.6,2,3.6,2.8c2.1,0.8,3.4,0.6,4.3-0.1c0.9-0.8,1.4-2.1,1.8-3.7
		c0.3-1.1,0.6-2.1,1.2-3c0.6-0.8,1.5-1.4,3.2-1.4c4.2-0.1,7.5-1.3,10.2-3.5s4.6-5.3,5.9-9.1c1.3-3.8,1.3-7.2,0.3-10.3
		c-1-3.1-3.1-5.9-6-8.4c-1.1-1-2.2-2-3.4-3c-1.1-1-2.2-2-3.3-3c-0.8-0.8-1.3-1.7-1.5-2.6s0-1.9,0.6-2.9c0.6-1,1.4-1.5,2.3-1.7
		c0.9-0.2,1.9,0,3,0.2c2.2,0.5,4.2,1.6,6.1,2.8c1.9,1.2,3.7,2.7,5.5,4.1c1.4-1.4,2.7-2.8,3.8-4.3s2-3,2.8-4.8
		c-1.2-1.7-2.8-2.9-4.5-3.9c-1.7-1-3.4-2-4.7-3.2c0-1.2,0.5-2.3,0.9-3.3s0.7-2.1,0.4-3.3c-0.4-0.2-0.8-0.5-1.2-0.7s-0.8-0.5-1.3-0.7
		c-1.7-0.8-3.3-1.4-4.5-1.1c-1.3,0.2-2.3,1.3-2.8,3.9c-0.3,1.6-1.1,2.1-2.1,2.2s-2.2-0.1-3.2,0c-3.3,0.1-6.1,1-8.5,2.6
		c-2.3,1.6-4.2,3.9-5.5,6.9c-1.3,3-2,5.9-1.7,8.7c0.3,2.8,1.4,5.5,3.7,8c1.3,1.4,2.6,2.8,4,4.1c1.4,1.3,2.8,2.6,4.1,4
		c1,1,1.8,2,2.3,3.2c0.4,1.2,0.4,2.5-0.4,3.9c-0.9,1.6-2,2.3-3.3,2.5c-1.3,0.2-2.7-0.1-4.1-0.4c-2.4-0.6-4.5-1.7-6.6-3
		C23.4,145.2,21.4,143.6,19.3,142z"/>
	<path fill="#F9F6F9" d="M0,178c21.2,0,42.3,0.1,63.5,0.1c4.6,0,6.7-2.3,6.7-6.8c0-44.3,0-88.6,0-133c0-4.6-2.5-6.7-6.8-6.8
		c-5.5-0.1-10.9,0-16.4,0c-1.2-2.3-0.6-4.2-0.8-6.8c7.7-0.4,15.1-1.2,22.4,0.5c5.1,1.2,8.6,6.2,8.6,11.6c0.1,45.3,0.1,90.6,0,136
		c0,7.5-5.5,12.3-13.4,12.3c-19.5,0-39,0-58.5,0c-1.8,0-3.2,0.1-5.3,0.2V178z"/>
	<path fill="#F9F6F9" d="M0,21.3c3.4,0.2,5,0.1,6.1-3.4c1.3-4.3,5-6.3,9.2-6.4c4.3-0.1,8.1,1.9,9.3,6.1c1.1,3.9,3.3,4.3,6.6,4.1
		c2.6-0.1,5.3-0.4,8.2,0.5v14H0V21.3z M20.4,22.1c-0.1-3.2-1.8-5.1-4.5-5.3c-3-0.2-5.4,1.8-5.5,4.8c-0.1,2.8,1.7,5,4.7,5.1
		C18.2,26.9,20,25.2,20.4,22.1z"/>
	<path fill="#F9F6F9" d="M0,75c14.1,1,28.2,0.2,42.3,0.4c2.1,0,4.2,0,6.2,0c0.6,2.6,0.6,4.5,0,7.1c-4.7,0-9.4-0.1-14.2,0
		C22.9,82.8,11.4,82,0,83V75z"/>
	<path fill="#F9F6F9" d="M0,53h48.3c1.2,2.4,0.6,4.5,0.7,7H0V53z"/>
	<path fill="#F9F6F9" d="M0,98h19.1c1.1,2.1,0.7,4.1,0.4,6.4c-6.5,1.1-13,0-19.6,0.6V98z"/>
	<path fill="#F9F6F9" d="M19.3,142c4.2,3.2,7.9,6.4,12.7,7.6c2.8,0.7,5.7,1.1,7.5-2.1c1.6-2.9,0.1-5.1-1.9-7.1
		c-2.7-2.7-5.6-5.2-8.1-8.1c-4.5-5-4.7-10.7-2-16.7c2.7-6.1,7.4-9.2,14-9.5c2-0.1,4.7,0.9,5.3-2.2c1-5.1,4-4.3,7.3-2.7
		c0.9,0.4,1.7,1,2.5,1.4c0.6,2.5-1.3,4.2-1.4,6.6c2.7,2.5,6.8,3.7,9.3,7.1c-1.5,3.4-3.7,6.2-6.5,9.1c-3.8-2.8-7.1-5.8-11.6-6.9
		c-2.2-0.5-4.1-0.6-5.2,1.5c-1.1,1.9-0.7,3.9,0.9,5.5c2.1,2.1,4.4,4,6.7,6c5.7,5.1,8.4,11.1,5.7,18.7c-2.7,7.6-7.7,12.5-16,12.6
		c-3.4,0.1-3.7,2.2-4.4,4.4c-1,3.1-1.9,5.4-6.2,3.8c-4.1-1.5-4.6-3.6-2.8-7.1c0.4-0.8,0.6-1.8,1-2.9c-3.5-2-7-3.5-10.1-5.8
		c-2.7-2-3.8-3.9-1.3-6.8C16.3,146.6,17.6,144.4,19.3,142z"/>
	<path fill="#FF9E55" d="M20.4,21.8c-0.4,3.1-2.2,4.8-5.3,4.6c-2.9-0.2-4.8-2.3-4.7-5.1c0.1-3,2.5-5.1,5.5-4.8
		C18.7,16.7,20.4,18.6,20.4,21.8z"/>
</g>
</svg>
