<?xml version="1.0" encoding="utf-8"?>
<!-- Generator: Adobe Illustrator 22.1.0, SVG Export Plug-In . SVG Version: 6.00 Build 0)  -->
<svg version="1.1" id="Layer_1" xmlns="http://www.w3.org/2000/svg" xmlns:xlink="http://www.w3.org/1999/xlink" x="0px" y="0px"
	 viewBox="0 0 250 197" enable-background="new 0 0 250 197" xml:space="preserve">
<g>
	<path fill="#468CBC" d="M0,101v-5c9.5,0,15.3-3.4,17.9-10.4c4-11-4.7-23.4-17.9-21.6V6c0-3.3,2.7-6,6-6h238c3.3,0,6,2.7,6,6v185
		c0,3.3-2.7,6-6,6H6c-3.3,0-6-2.7-6-6l0-17c3.2,0,6.3,0,9.5,0.2c3.6,0.2,5.2-1.4,5.2-5c0-4.3,0.3-8.6,0.2-13c-0.1-3.3,0-6.2,3.6-7.9
		c1.9-0.9,2.4-3.1,2.4-5.2c0-9.6,0.1-19.3-0.1-28.9c-0.1-3.7-1.4-7.3-4-10c-3.4-3.4-6.5-8.1-12.4-3.6C3.4,101.5,1.5,100.9,0,101z
		 M71.8,128.8c0,2.8,0,5.7,0,8.5c0.1,4.9-1.2,10.1,4.6,13.1c1.4,0.7,0.8,2.7,0.9,4.2c0,4.8,0,9.7,0.1,14.5c0,3.5,1.6,5.4,5.7,5
		c4.5-0.4,9.1-0.1,13.6,0c3.6,0.1,5.1-1.7,5.1-5.1c0.1-4.5,0.2-9,0-13.5c-0.1-3,0.3-5.4,3.4-7c2.3-1.2,2.7-3.6,2.6-6.1
		c0-9.2,0.1-18.3-0.1-27.5c-0.1-6.7-3.4-11.7-9.1-15.1c-1.9-1.2-3.7-2-5.8,0.1c-1.7,1.7-4.2,1.7-6,0.3c-2.9-2.3-5.2-1.1-7.6,0.6
		c-4.8,3.4-7.4,8-7.5,14C71.8,119.5,71.9,124.2,71.8,128.8z M64.1,128.6c0-4.7,0-9.3,0-14c-0.1-5.8-2.7-10.2-7.2-13.6
		c-2.4-1.8-4.9-3.5-8-0.7c-1.4,1.3-3.7,1.3-5.2,0.1c-3.8-3.1-6.5-0.8-9.2,1.4c-4,3.4-6.4,8.5-6.4,13.8c0,8.4,0.1,16.9-0.1,25.3
		c-0.1,3.7,0.4,7,4.2,8.8c2.4,1.1,1.4,3.6,1.8,5.5c0.7,3.7,1,7.5,0.3,11.2c-1.2,5.8,0.4,8.6,6.3,7.5c3.6-0.6,7.3-0.5,10.9,0
		c5.1,0.8,7-1,6.4-5.9c-0.5-4.3-0.3-8.6,0.2-12.9c0.2-1.7-0.6-4.1,1.5-5.1c4.8-2.2,4.7-6.3,4.6-10.6
		C64.1,135.9,64.2,132.3,64.1,128.6z M62.1,79.6C61.9,70.5,55.3,64,46.2,64c-9,0-16.2,7.2-16.1,16.1c0.1,9.6,8.4,17,18.4,15.7
		C56.6,94.8,62.3,87.7,62.1,79.6z M73.9,80c0,8.5,5.7,14.9,13.8,15.9c9.7,1.2,18.2-6.2,18.2-16c0-8.9-7-15.9-15.9-15.9
		C80.7,64,73.9,70.7,73.9,80z M111,48c-3.5,0-6.2,0.1-8.8,0c-3.2-0.1-6,0.6-5.9,4.3c0.1,3.6,2.9,4.4,6,4.6c2.8,0.2,5.6-0.6,8.7,0.8
		c0,2.7,0,5.5,0,8.3c0,3.1,1.2,5.4,4.4,5.4c3.4,0,4.3-2.4,4.4-5.4c0.1-2.9-0.6-5.9,0.9-9.2c3.1,0,6.3,0.2,9.4-0.1
		c2.8-0.2,4.8-1.9,4.5-4.9c-0.2-2.7-2.2-3.9-4.9-3.9c-3.1,0-6.2,0-9.2,0c-1.1-3.7-0.5-6.9-0.7-10c-0.1-2.9-1.3-4.9-4.4-5
		c-3.1,0-4.4,2-4.4,4.9C111,41.1,111,44.2,111,48z"/>
	<path fill="#FEFDFC" d="M0,101c1.5-0.1,3.4,0.5,4.4-0.3c5.9-4.5,9,0.2,12.4,3.6c2.7,2.7,4,6.2,4,10c0.2,9.6,0.1,19.3,0.1,28.9
		c0,2.1-0.4,4.3-2.4,5.2c-3.7,1.7-3.7,4.6-3.6,7.9c0.1,4.3-0.2,8.6-0.2,13c0,3.6-1.6,5.2-5.2,5C6.3,174,3.2,174,0,174
		C0,149.7,0,125.3,0,101z"/>
	<path fill="#FEFDFC" d="M0,64c13.1-1.8,21.9,10.5,17.9,21.6C15.3,92.6,9.5,96,0,96C0,85.3,0,74.7,0,64z"/>
	<path fill="#FEFDFC" d="M71.9,128.8c0-4.7-0.1-9.3,0-14c0.1-5.9,2.7-10.5,7.5-14c2.4-1.7,4.7-3,7.6-0.6c1.8,1.5,4.3,1.4,6-0.3
		c2.1-2,3.9-1.2,5.8-0.1c5.6,3.5,9,8.4,9.1,15.1c0.1,9.2,0,18.3,0.1,27.5c0,2.5-0.4,4.9-2.6,6.1c-3.1,1.6-3.5,4-3.4,7
		c0.1,4.5,0,9,0,13.5c0,3.4-1.5,5.2-5.2,5.1c-4.7-0.2-9.3-0.2-14,0c-3.7,0.1-5.2-1.7-5.2-5.1c-0.1-4.8,0-9.7-0.1-14.5
		c0-1.5,0.5-3.5-0.9-4.2c-5.9-3-4.6-8.2-4.6-13.1C71.8,134.5,71.8,131.6,71.9,128.8z"/>
	<path fill="#FEFDFC" d="M64.1,128.6c0,3.7-0.1,7.3,0,11c0.1,4.3,0.3,8.4-4.6,10.6c-1.8,0.8-1.4,2.8-1.4,4.5c-0.1,5-0.2,10-0.1,15
		c0,3.1-1.4,4.6-4.5,4.5c-5-0.1-10-0.1-15,0c-3.2,0-4.5-1.6-4.5-4.6c0-5.2,0-10.3,0-15.5c0-1.6,0.2-3.4-1.7-4.3
		c-3.8-1.8-4.3-5-4.2-8.8c0.1-8.3,0-16.7,0.1-25c0-5.6,2.1-10.4,6.4-14.1c2.7-2.3,5.4-4.5,9.2-1.4c1.4,1.2,3.7,1.1,5.2-0.1
		c3.1-2.8,5.5-1.1,8,0.7c4.5,3.4,7.2,7.8,7.2,13.6C64.2,119.3,64.1,123.9,64.1,128.6z"/>
	<path fill="#FEFDFC" d="M62.1,80.1c0,9.3-6.8,16-16.1,15.9c-8.8-0.1-15.8-7.1-15.9-15.9c-0.1-9,7-16.1,16.1-16.1
		C55.5,64,62.2,70.8,62.1,80.1z"/>
	<path fill="#FEFDFC" d="M73.9,80c0-9.2,6.8-16,16.1-16c8.9,0,15.8,6.9,15.9,15.8C106,88.9,99,96,89.9,96C80.6,96,73.8,89.2,73.9,80
		z"/>
	<path fill="#FEFDFC" d="M111,48c0-3.8-0.1-6.9,0-10c0.1-2.9,1.4-4.9,4.4-4.9c3.1,0,4.2,2.1,4.4,5c0.2,3.1-0.5,6.3,0.7,10
		c3,0,6.1,0,9.2,0c2.7,0,4.7,1.1,4.9,3.9c0.2,3-1.7,4.7-4.5,4.9c-3.1,0.2-6.3,0.1-9.4,0.1c-1.5,3.3-0.7,6.3-0.9,9.2
		c-0.1,3-1.1,5.5-4.4,5.4c-3.3,0-4.5-2.3-4.4-5.4c0-2.8,0-5.6,0-8.3c-3.1-1.4-6-0.7-8.7-0.8c-3.1-0.2-5.9-1-6-4.6
		c-0.1-3.8,2.7-4.4,5.9-4.3C104.8,48.1,107.5,48,111,48z"/>
</g>
</svg>
