<?xml version="1.0" encoding="utf-8"?>
<!-- Generator: Adobe Illustrator 22.1.0, SVG Export Plug-In . SVG Version: 6.00 Build 0)  -->
<svg version="1.1" id="Layer_1" xmlns="http://www.w3.org/2000/svg" xmlns:xlink="http://www.w3.org/1999/xlink" x="0px" y="0px"
	 viewBox="0 0 250 197" style="enable-background:new 0 0 250 197;" xml:space="preserve">
<style type="text/css">
	.st0{fill:#4285B7;}
	.st1{fill:#FDFDFE;}
</style>
<g>
	<path class="st0" d="M0,41v-6h93.8c0.6-5-2.7-4.5-5.5-4.5c-27.5,0-54.9,0-82.4,0c-2,0-4,0.4-5.9-0.5V6c0-3.3,2.7-6,6-6
		c79.3,0,158.7,0,238,0c3.3,0,6,2.7,6,6c0,61.7,0,123.3,0,185c0,3.3-2.7,6-6,6c-79.3,0-158.7,0-238,0c-3.3,0-6-2.7-6-6
		c0-6.7,0-13.3,0-20c2-0.1,4-0.2,6-0.2c34,0,67.9-0.1,101.9,0.1c4.4,0,6.2-1.2,6.2-5.9c-0.2-36.5-0.1-72.9,0-109.4
		c0-4.4-1.4-5.9-5.8-5.8c-14,0.2-28,0.4-42-0.1C60,49.4,56,51,54.3,57.5c-1.5,5.6-5.5,7.7-11.3,7.6C28.6,64.8,14.3,65,0,65v-6
		c14,0.1,28,0.1,42,0.2c5.8,0,6.7-0.9,7.5-7.2H0v-6c25.7,0.1,50.8,0.7,76.6,0c5.5-0.2,11.5-0.3,17.4-0.3c-0.1-5.8-4-4.7-6.1-4.7
		C58.6,41,29.3,41,0,41z"/>
	<path class="st1" d="M0,65c14.3,0,28.6-0.2,43,0.1c5.8,0.1,9.8-2,11.3-7.6c1.7-6.5,5.7-8,12.1-7.8c14,0.5,28,0.3,42,0.1
		c4.3-0.1,5.8,1.4,5.8,5.8c-0.1,36.5-0.1,72.9,0,109.4c0,4.8-1.8,5.9-6.2,5.9c-34-0.1-67.9-0.1-101.9-0.1c-2,0-4,0.1-6,0.2
		C0,135.7,0,100.3,0,65z M36,134.4c6.4,2.2,11.8,3.4,16.7,5.8c11.1,5.4,21.8,5.4,32.8,0c4.9-2.4,10.5-3.1,16.4-6.3
		c-4.2-1.1-7.4-1.5-10.5-2.7C72.9,124.1,55.1,128.1,36,134.4z M49.8,141.1c-0.2,2.8-0.1,4-0.3,5.1c-1.1,5.7,1.8,7.9,6.9,9.2
		c7.9,2,15.7,2.2,23.6,0.4c8.9-2,10.2-4.2,7.9-14.3C75.5,148.6,62.9,149.4,49.8,141.1z M96.2,139.5c-0.4,4.7-4,9.4,0.1,14
		C100.3,148.8,96.3,144.1,96.2,139.5z"/>
	<path class="st1" d="M0,30c1.9,0.8,3.9,0.5,5.9,0.5c27.5,0,54.9,0,82.4,0c2.7,0,6.1-0.5,5.5,4.5C62.5,35,31.2,35,0,35
		C0,33.3,0,31.7,0,30z"/>
	<path class="st1" d="M0,41c29.3,0,58.6,0,87.9,0c2.1,0,6-1.1,6.1,4.7c-5.9,0-11.1,0.2-16.6,0.3C51.9,46.3,25.7,46.1,0,46
		C0,44.3,0,42.7,0,41z"/>
	<path class="st1" d="M0,52c16.5,0,32.9,0,49.4,0c-0.8,6.3-1.7,7.2-7.5,7.2c-14,0-28-0.1-42-0.2C0,56.7,0,54.3,0,52z"/>
	<path class="st0" d="M36,134.4c19-6.3,36.8-10.3,55.3-3.2c3,1.2,6.3,1.6,10.5,2.7c-5.8,3.2-11.5,3.9-16.4,6.3
		c-11,5.5-21.7,5.5-32.8,0C47.8,137.8,42.4,136.6,36,134.4z"/>
	<path class="st0" d="M49.8,141.1c13.1,8.3,25.7,7.5,38.2,0.4c2.2,10.1,1,12.3-7.9,14.3c-7.9,1.8-15.7,1.6-23.6-0.4
		c-5.1-1.3-8-3.6-6.9-9.2C49.7,145,49.6,143.8,49.8,141.1z"/>
	<path class="st0" d="M96.2,139.5c0.1,4.6,4.1,9.3,0.1,14C92.2,148.9,95.8,144.1,96.2,139.5z"/>
</g>
</svg>
