<?xml version="1.0" encoding="utf-8"?>
<!-- Generator: Adobe Illustrator 22.1.0, SVG Export Plug-In . SVG Version: 6.00 Build 0)  -->
<svg version="1.1" id="Layer_1" xmlns="http://www.w3.org/2000/svg" xmlns:xlink="http://www.w3.org/1999/xlink" x="0px" y="0px"
	 viewBox="0 0 250 197" enable-background="new 0 0 250 197" xml:space="preserve">
<g>
	<path fill="#FF9E55" d="M0,28V6c0-3.3,2.7-6,6-6c79.3,0,158.7,0,238,0c3.3,0,6,2.7,6,6c0,61.7,0,123.3,0,185c0,3.3-2.7,6-6,6
		c-79.3,0-158.7,0-238,0c-3.3,0-6-2.7-6-6c0-11,0-22,0-33c4.3,0,8.7,0,13-0.2c6.8-0.2,13.3,0.5,18.7,5.3c1.9,1.6,4.5,1.5,6.4-0.2
		c5-4.4,10.9-5.2,17.2-5.2c21.5,0.1,43,0,64.5,0c9.9,0,16-6.2,16-16.1c0-33.8,0-67.6,0-101.4c0-1.8,0-3.6,0-5.6l-4.7-1
		c-0.3-1.8-0.5-3.4-0.8-5.6c-1.9,0-3.7,0-5.5,0c-19.2,0-38.3,0.3-57.5-0.1c-13.3-0.1-25.2,2-32.5,15.6
		c-5.6-10.1-13.7-14.8-24.3-15.3C7,28,3.5,28.1,0,28z"/>
	<path fill="#FAF9FB" d="M0,28c3.5,0.1,7,0,10.5,0.2c10.6,0.5,18.7,5.2,24.3,15.3C42.1,29.9,54,27.8,67.4,28
		c19.1,0.4,38.3,0.1,57.5,0.1c1.8,0,3.6,0,5.5,0c0.3,2.2,0.5,3.8,0.8,5.6c1.5,0.3,2.9,0.6,4.7,1c0,2,0,3.8,0,5.6
		c0,33.8,0,67.6,0,101.4c0,9.9-6.2,16.1-16,16.1c-21.5,0-43,0.1-64.5,0c-6.3,0-12.2,0.7-17.2,5.2c-1.9,1.7-4.5,1.8-6.4,0.2
		c-5.5-4.8-11.9-5.5-18.7-5.3C8.7,158,4.3,158,0,158c0-7,0-14,0-21c11.6-0.2,23.1-0.2,31.4,10.1c1.5-2.4,1-4.2,1-6
		c0-12.5,0.1-25,0-37.5c-0.1-16.7,0.2-33.3-0.4-50c-0.4-11.8-9.3-20-21.1-20.6C7.3,32.9,3.7,33,0,33C0,31.3,0,29.7,0,28z
		 M125.9,33.2c-23.4,0-46.4-0.5-69.3,0.2c-11.2,0.3-19.3,10.3-19.3,21.7c-0.1,29.3,0,58.6,0,88c0,1.2-0.7,2.7,1,3.4
		c9.6-8.2,13.1-9.4,25.9-9.4c18.7,0,37.3,0,56,0c1.9,0,4,0.7,5.8-0.9C125.9,102.1,125.9,68,125.9,33.2z"/>
	<path fill="#FF9E55" d="M0,33c3.7,0,7.3-0.1,11,0.1c11.8,0.6,20.7,8.8,21.1,20.6c0.6,16.6,0.3,33.3,0.4,50c0,12.5,0,25,0,37.5
		c0,1.8,0.5,3.6-1,6C23.1,136.8,11.6,136.8,0,137c0-8,0-16,0-24c3.8,0,7.6,0,11.3,0c1.6,0,3.2-0.1,3.3-2.1c0.1-2.2-1.5-2.7-3.3-2.7
		c-3.8-0.1-7.6-0.1-11.3-0.2c0-7,0-14,0-21c3.6-1.7,7.5-0.4,11.2-0.8c1.5-0.1,3.3,0,3.5-2c0.2-2.2-1.5-2.6-3.3-2.8
		C7.6,81.2,3.8,81.9,0,81c0-7,0-14,0-21c3.8,0,7.6,0,11.4,0c1.8,0,3.4-0.5,3.3-2.7c-0.1-1.9-1.7-2.1-3.3-2.2c-3.8,0-7.6,0-11.4-0.1
		C0,47.7,0,40.3,0,33z"/>
	<path fill="#FAF9FB" d="M0,81c3.8,0.9,7.6,0.2,11.4,0.5c1.8,0.1,3.5,0.6,3.3,2.8c-0.2,2-1.9,1.8-3.5,2C7.5,86.6,3.6,85.3,0,87
		C0,85,0,83,0,81z"/>
	<path fill="#FAF9FB" d="M0,55c3.8,0.1,7.6,0.1,11.3,0.2c1.6,0,3.2,0.3,3.3,2.2c0.2,2.2-1.5,2.7-3.3,2.7C7.6,60,3.8,60,0,60
		C0,58.3,0,56.7,0,55z"/>
	<path fill="#FAF9FB" d="M0,108c3.8,0.1,7.6,0.1,11.3,0.2c1.8,0,3.4,0.6,3.3,2.7c-0.1,2-1.7,2.1-3.3,2.1c-3.8,0-7.6,0-11.3,0
		C0,111.3,0,109.7,0,108z"/>
	<path fill="#FF9E55" d="M125.9,33.2c0,34.7,0,68.9,0,103c-1.8,1.6-3.9,0.9-5.8,0.9c-18.7,0.1-37.3,0-56,0
		c-12.8,0-16.3,1.3-25.9,9.4c-1.7-0.7-1-2.3-1-3.4c0-29.3-0.1-58.6,0-88c0-11.4,8.1-21.4,19.3-21.7C79.5,32.8,102.4,33.2,125.9,33.2
		z M86.5,79.8c-1.2-2.3-1.6-5.2-5-3.8c-13.1,5.3-17.1,16.6-10.6,26.7c3.6,5.6,7.3,11.2,11.1,16.6c5,7,13.8,8.9,21.3,4.8
		c9.8-5.4,13.8-13.6,10.2-22.1c-2.7-6.2-7.2-11.4-11.1-17.2c-2.6,3.7-2.8,6.7-0.1,9.8c1.7,2,3,4.4,4.5,6.6
		c4.1,6.5,2.8,11.9-3.9,16.5c-6.8,4.7-12.1,3.9-16.8-2.6c-2.3-3.2-4.3-6.8-6.7-9.9C68.4,90.9,74.3,85.5,86.5,79.8z M78,94.5
		c1.2,2.6,1.7,5.4,4.9,4.3c11.2-3.8,18-14.8,11.7-25.5C91,67.1,86.8,61,82.5,55.1c-5-6.7-14.1-8.2-21.5-4c-9,5.2-12.7,13.5-9.2,21.6
		c2.8,6.4,7.3,11.7,11.2,17.7c2.5-4,2.2-7.2-0.5-10.4c-1.7-2-3.1-4.3-4.4-6.6C54.2,67,55.7,61,62.2,56.7s12.6-3.4,16.9,2.7
		c3.6,5.2,7.2,10.4,10.5,15.8c3.4,5.5,2,11.6-3.1,15.5C84.2,92.6,81.6,94,78,94.5z"/>
	<path fill="#FAF9FB" d="M86.5,79.8c-12.2,5.7-18.1,11.1-7.2,25.4c2.4,3.2,4.4,6.7,6.7,9.9c4.6,6.5,9.9,7.3,16.8,2.6
		c6.8-4.6,8.1-10,3.9-16.5c-1.4-2.2-2.8-4.6-4.5-6.6c-2.6-3.2-2.5-6.1,0.1-9.8c3.9,5.9,8.4,11,11.1,17.2c3.7,8.5-0.3,16.7-10.2,22.1
		c-7.5,4.1-16.3,2.2-21.3-4.8c-3.9-5.4-7.5-11-11.1-16.6C64.4,92.6,68.4,81.3,81.5,76C84.9,74.6,85.3,77.5,86.5,79.8z"/>
	<path fill="#FAF9FB" d="M78,94.5c3.6-0.5,6.2-1.9,8.6-3.7c5.1-3.8,6.4-10,3.1-15.5c-3.3-5.4-6.9-10.6-10.5-15.8
		c-4.3-6.1-10.4-7.1-16.9-2.7c-6.5,4.3-8,10.3-4.1,16.7c1.4,2.3,2.7,4.6,4.4,6.6c2.7,3.2,3,6.3,0.5,10.4c-3.9-6-8.5-11.3-11.2-17.7
		C48.3,64.6,52,56.4,61,51.2c7.4-4.3,16.5-2.8,21.5,4C86.8,61,91,67.1,94.7,73.4C100.9,84.1,94.2,95,83,98.9
		C79.7,100,79.2,97.1,78,94.5z"/>
</g>
</svg>
