<?xml version="1.0" encoding="utf-8"?>
<!-- Generator: Adobe Illustrator 22.1.0, SVG Export Plug-In . SVG Version: 6.00 Build 0)  -->
<svg version="1.1" xmlns="http://www.w3.org/2000/svg" xmlns:xlink="http://www.w3.org/1999/xlink" x="0px" y="0px"
	 viewBox="0 0 250 197" enable-background="new 0 0 250 197" xml:space="preserve">
<g id="Layer_2">
	<path fill="#FF9E55" d="M243,197H7c-3.9,0-7-3.1-7-7V7c0-3.9,3.1-7,7-7h236c3.9,0,7,3.1,7,7v183C250,193.9,246.9,197,243,197z"/>
</g>
<g id="Layer_1">
	<g>
		<path fill="#FFFFFF" d="M1,29c6.3,0.4,12.7,0.1,18.8,1.4c6.9,1.4,11.9,6.4,15.8,12.9c1.6-2,2.9-3.8,4.4-5.5
			c5-5.6,11.5-8.8,18.9-8.9c23.5-0.2,47-0.1,70.4-0.1c0.8,0,1.6,0.3,2.5,0.4c0.2,1.6,0.4,3.1,0.7,4.9c4.8-0.1,4.8,3.1,4.8,6.9
			c-0.1,24.6-0.1,49.3-0.1,73.9c0,1.6,0,3.3,0,5.1c-3.4,0-6.5,0-10.2,0c0-28.5,0-56.8,0-84.8c-0.9-0.6-1.2-0.9-1.5-0.9
			c-21.6-0.1-43.3-0.4-64.9,0c-13.4,0.2-21.8,9.4-21.9,22.8c-0.1,28.3,0,56.6,0,84.9c0,1.4,0.2,2.9,0.3,5.3
			c8.5-8.9,18.4-10.7,28.9-9.4c-0.8,3.6-2.7,7.2-2.2,10.6c0.4,3.3,3.1,6.4,5.3,10.6c-4.9,0-9.2,0.1-13.6,0
			c-6.6-0.2-12.8,0.7-18.3,5.1c-1.4,1.1-5,1.2-6.3,0.2c-6.2-5.1-13.3-5.4-20.8-5.2c-3.7,0.1-7.3-0.1-11-0.2c0-7,0-14,0-21
			c11.5-0.9,22.6-0.4,31.1,9.2c0.5-0.8,0.8-1,0.8-1.3c0-30.8,0.1-61.5-0.2-92.3c-0.1-8.8-7.4-16.7-16.3-18.4
			C11.3,34.3,6.1,34.4,1,34C1,32.3,1,30.7,1,29z"/>
		<path fill="#FFFFFF" d="M1,82c3.8,0,7.6-0.3,11.4,0.1c1.3,0.1,2.5,2,3.7,3c-1.2,0.8-2.4,2.2-3.7,2.4C8.6,87.9,4.8,87.9,1,88
			C1,86,1,84,1,82z"/>
		<path fill="#FFFFFF" d="M1,56c4-0.1,7.9-0.3,11.9-0.1C14,56,15,57.5,16,58.3c-1.1,1-2.1,2.7-3.2,2.8C8.9,61.4,5,61.1,1,61
			C1,59.3,1,57.7,1,56z"/>
		<path fill="#FFFFFF" d="M1,109c3.8-0.1,7.6-0.4,11.4,0c1.3,0.1,2.5,1.9,3.7,2.9c-1.2,0.8-2.4,2.2-3.7,2.3
			c-3.8,0.2-7.6-0.1-11.4-0.2C1,112.3,1,110.7,1,109z"/>
		<path fill="#FFFFFF" d="M95.3,125.8c6.8-2.4,12.7-5.2,20-3.2c4.7,1.3,10.1,0.9,15.1,0.9c3.6-0.1,5.8,1.7,7,4.6
			c5.4,14.1,6.4,28.5,0.6,42.7c-1.2,2.8-4.5,5.1-7.3,6.9c-10.3,6.7-21.6,5-32.8,3.3c-3-0.5-6.4-2.5-8.4-4.9
			c-6.6-7.9-12.7-16.3-18.7-24.6c-3.4-4.7-2.3-8.8,3.1-10.6c2-0.7,5.3,0,6.9,1.4c3.2,2.8,5.6,6.5,9.1,9.4c-2.5-6.4-5-12.7-7.6-19.1
			c-3.8-9.6-7.8-19.1-11.3-28.7c-0.9-2.4-1.1-5.7-0.1-8c0.8-1.8,4.2-3.9,5.8-3.4c2.7,0.7,5.9,2.9,7.1,5.3c3.4,6.8,5.8,14.1,8.7,21.2
			C93.3,121.2,94.3,123.4,95.3,125.8z"/>
		<path fill="#FFFFFF" d="M81.4,87.7c-7.5,0-15,0.1-22.5-0.1c-1.5-0.1-2.9-1.8-4.3-2.7c1.5-1,3-2.7,4.5-2.7c15-0.2,30-0.2,45,0
			c1.6,0,3.1,2,4.7,3.1c-1.6,0.8-3.2,2.3-4.8,2.4C96.4,87.8,88.9,87.7,81.4,87.7z"/>
		<path fill="#FFFFFF" d="M81,61.3c-7.3,0-14.6,0.1-22-0.1c-1.5-0.1-3-1.7-4.5-2.5c1.4-0.9,2.9-2.7,4.3-2.7
			c15.1-0.2,30.3-0.2,45.4,0c1.5,0,2.9,1.8,4.3,2.8c-1.4,0.8-2.8,2.4-4.2,2.4C96.7,61.4,88.8,61.3,81,61.3z"/>
		<path fill="#FFFFFF" d="M69.9,114.3c-4.1,0-8.2,0.2-12.3-0.1c-1-0.1-2-1.6-3-2.4c0.9-1,1.8-2.6,2.8-2.8c3.1-0.4,6.4-0.6,9.4,0
			c1.6,0.3,2.7,2.5,4.1,3.8C70.6,113.3,70.2,113.8,69.9,114.3z"/>
		<path fill="#FFFFFF" d="M93.2,108.8c4.1,0,7.9-0.3,11.6,0.1c1.4,0.1,2.5,1.9,3.8,2.9c-1.2,0.8-2.3,2.1-3.7,2.3
			c-2.1,0.4-4.3-0.1-6.4,0.1C95,114.6,93.3,113.2,93.2,108.8z"/>
	</g>
</g>
</svg>
