<!DOCTYPE svg PUBLIC "-//W3C//DTD SVG 20010904//EN" "http://www.w3.org/TR/2001/REC-SVG-20010904/DTD/svg10.dtd">
<svg version="1.0" xmlns="http://www.w3.org/2000/svg" width="250px" height="197px" viewBox="0 0 2500 1970" preserveAspectRatio="xMidYMid meet">
<g id="layer101" fill="#407bb5" stroke="none">
 <path d="M20 1950 c-20 -20 -20 -33 -20 -965 0 -932 0 -945 20 -965 20 -20 33 -20 1230 -20 1197 0 1210 0 1230 20 20 20 20 33 20 965 0 932 0 945 -20 965 -20 20 -33 20 -1230 20 -1197 0 -1210 0 -1230 -20z"/>
 </g>
<g id="layer102" fill="#4385b7" stroke="none">
 <path d="M22 1947 c-22 -23 -22 -26 -22 -434 l0 -410 65 -18 c71 -19 90 -34 80 -64 -9 -29 -34 -33 -91 -16 -27 8 -50 15 -51 15 -2 0 -3 -31 -3 -69 l0 -70 52 -15 c29 -8 98 -27 153 -41 113 -30 143 -50 126 -84 -16 -28 -35 -27 -181 14 -69 19 -131 35 -138 35 -10 0 -12 -17 -10 -66 l3 -66 50 -16 c45 -15 50 -20 50 -47 0 -30 -1 -30 -53 -29 l-52 2 0 -262 c0 -261 0 -263 23 -284 l23 -22 1205 0 1206 0 21 23 22 23 0 940 0 941 -23 21 -23 22 -1205 0 -1206 0 -21 -23z m673 -412 l54 6 -30 -108 c-44 -159 -44 -161 -25 -182 10 -11 24 -41 32 -68 46 -153 -116 -299 -264 -238 -94 40 -143 138 -117 237 14 56 62 112 110 129 30 11 33 17 65 138 18 69 35 129 37 134 3 4 22 -7 44 -24 37 -29 43 -31 94 -24z"/>
 <path d="M479 1191 c-51 -41 -17 -141 47 -141 83 0 120 98 56 146 -25 19 -76 17 -103 -5z"/>
 </g>
<g id="layer103" fill="#d8e6f1" stroke="none">
 <path d="M0 1465 c0 -276 3 -357 13 -360 6 -2 39 -12 72 -22 48 -14 61 -22 63 -41 7 -51 -21 -59 -121 -36 l-27 6 0 -64 0 -65 160 -43 c88 -23 165 -49 171 -56 14 -17 4 -60 -16 -68 -9 -3 -81 12 -160 34 -80 22 -147 40 -150 40 -3 0 -5 -29 -5 -64 l0 -65 54 -15 c60 -18 74 -40 49 -76 -15 -22 -38 -23 -86 -5 -16 7 -17 -4 -15 -176 l3 -182 98 -28 c68 -18 100 -23 103 -15 2 6 20 72 40 146 20 74 41 141 46 147 16 19 41 16 193 -26 77 -21 143 -36 146 -32 3 3 21 60 38 126 18 66 37 134 42 151 l10 32 46 -14 c26 -8 48 -15 50 -17 1 -2 -8 -42 -21 -90 -13 -48 -22 -87 -19 -87 3 0 93 53 199 117 l193 118 -74 140 c-128 243 -142 267 -148 259 -3 -5 -15 -46 -27 -91 l-22 -82 -45 14 c-25 8 -47 16 -50 19 -3 2 27 122 67 266 39 144 70 271 68 283 -2 11 -10 24 -18 28 -16 9 -894 249 -911 249 -5 0 -9 -139 -9 -355z m653 65 c6 1 31 5 55 9 23 5 42 5 42 0 0 -5 -16 -65 -35 -135 l-34 -126 27 -40 c22 -33 27 -53 27 -102 0 -77 -26 -130 -84 -171 -38 -27 -51 -30 -115 -30 -62 0 -78 4 -114 28 -70 46 -105 141 -82 224 14 49 64 107 116 134 27 14 33 26 59 125 15 60 32 120 37 133 l8 23 40 -36 c22 -20 46 -36 53 -36z"/>
 <path d="M486 1189 c-35 -28 -36 -80 -1 -114 28 -29 45 -31 85 -10 53 27 53 103 0 130 -38 20 -52 19 -84 -6z"/>
 <path d="M346 387 c-16 -12 -91 -247 -79 -247 16 0 341 186 335 191 -4 4 -52 19 -107 34 -55 14 -107 28 -116 31 -8 2 -23 -2 -33 -9z"/>
 </g>
<g id="layer104" fill="#ffffff" stroke="none">
 <path d="M0 1467 l0 -355 66 -18 c75 -20 103 -48 85 -83 -14 -25 -42 -34 -72 -23 -13 5 -36 12 -51 16 l-28 6 0 -60 0 -59 53 -15 c28 -8 95 -27 147 -41 133 -36 140 -39 140 -74 0 -16 -7 -34 -16 -42 -17 -14 -51 -7 -237 45 l-88 24 3 -61 3 -61 44 -13 c54 -16 71 -29 71 -58 0 -35 -24 -49 -75 -42 l-45 7 0 -174 0 -173 83 -22 c45 -12 89 -24 99 -27 18 -5 20 -1 69 179 22 82 37 121 50 128 14 7 58 -1 170 -32 109 -29 154 -38 159 -29 4 6 24 75 45 153 21 78 39 143 40 145 1 1 25 -3 54 -10 59 -13 59 -14 31 -112 -11 -38 -18 -72 -16 -74 4 -3 358 209 375 224 2 2 -43 91 -100 198 -57 108 -106 192 -110 188 -3 -4 -15 -40 -25 -81 -10 -40 -23 -75 -29 -77 -15 -6 -100 21 -99 32 1 5 34 132 74 282 46 168 70 276 64 281 -5 5 -209 64 -454 131 -245 66 -453 123 -462 126 -17 5 -18 -16 -18 -349z m607 100 c35 -33 37 -33 90 -24 30 5 56 7 58 5 2 -2 -12 -64 -32 -137 -30 -107 -34 -136 -25 -149 42 -58 55 -152 29 -215 -28 -65 -121 -127 -192 -127 -72 0 -150 52 -187 123 -16 32 -19 54 -16 103 5 77 39 131 104 165 24 13 46 31 48 39 3 8 19 68 37 133 17 64 35 117 40 117 5 0 26 -15 46 -33z"/>
 <path d="M481 1174 c-12 -15 -21 -34 -21 -44 0 -10 9 -29 21 -44 41 -52 122 -23 122 44 0 67 -81 96 -122 44z"/>
 </g>

</svg>